<?xml version="1.0" encoding="UTF-8" standalone="no" ?>
<!DOCTYPE sesx>
<sesx version="1.4">

  <session appBuild="10.1.0.174" appVersion="10.1" audioChannelType="stereo" bitDepth="32" duration="1323000" sampleRate="44100">
    <name>umbrella_woosh_20180226T200837.432000.sesx</name>
    <tracks>
      <audioTrack automationLaneOpenState="false" id="10001" index="1" select="false" visible="true">
        <trackParameters trackHeight="172" trackHue="-1" trackMinimized="false">
          <name>軌道 1</name>
        </trackParameters>
        <trackAudioParameters audioChannelType="stereo" automationMode="1" monitoring="false" recordArmed="false" solo="false" soloSafe="false">
          <trackOutput outputID="10000" type="trackID"/>
          <trackInput inputID="1"/>
          <component componentGuid="3d0cd6fa-80a9-4b59-886c-a8eca2cf396f" componentID="Audition.Fader" id="trackFader" name="volume" powered="true">
            <parameter index="0" name="volume" parameterValue="1"/>
            <parameter index="1" name="static gain" parameterValue="1"/>
          </component>
          <component componentGuid="94d07fed-d45c-4a9f-9972-7eac5cc38706" componentID="Audition.Mute" id="trackMute" name="Mute" powered="true">
            <parameter index="0" parameterValue="0"/>
            <parameter index="1" name="mute" parameterValue="0"/>
          </component>
          <component componentGuid="9cd7d9b5-d0fb-4ef9-91b2-fc30c3bcadaa" componentID="Audition.StereoPanner" id="trackPan" name="StereoPanner" powered="true">
            <parameter index="0" name="聲像" parameterValue="0"/>
          </component>
          <component componentGuid="fa0a549d-eedf-4581-8f9a-dec9ce36d89f" componentID="Audition.EQ" id="trackEQ" name="EQ" powered="false">
            <parameter index="0" name="下限頻率" parameterValue="0.0009079"/>
            <parameter index="1" name="下限增益" parameterValue="0.5"/>
            <parameter index="2" name="上限頻率" parameterValue="0.8161598"/>
            <parameter index="3" name="上限頻率增益" parameterValue="0.5"/>
            <parameter index="4" name="EQ 頻段 1 中置頻率" parameterValue="0.0013618"/>
            <parameter index="5" name="EQ 頻段 1 Q" parameterValue="0.0002"/>
            <parameter index="6" name="EQ 頻段 1 增益" parameterValue="0.5"/>
            <parameter index="7" name="EQ 頻段 1 啟用" parameterValue="1"/>
            <parameter index="8" name="EQ 頻段 2 中置頻率" parameterValue="0.0081707"/>
            <parameter index="9" name="EQ 頻段 2 Q" parameterValue="0.0002"/>
            <parameter index="10" name="EQ 頻段 2 增益" parameterValue="0.5"/>
            <parameter index="11" name="EQ 頻段 2 啟用" parameterValue="1"/>
            <parameter index="12" name="EQ 頻段 3 中置頻率" parameterValue="0.0354063"/>
            <parameter index="13" name="EQ 頻段 3 Q" parameterValue="0.0002"/>
            <parameter index="14" name="EQ 頻段 3 增益" parameterValue="0.5"/>
            <parameter index="15" name="EQ 頻段 3 啟用" parameterValue="1"/>
            <parameter index="16" name="EQ 頻段 4 中置頻率" parameterValue="0.1443486"/>
            <parameter index="17" name="EQ 頻段 4 Q" parameterValue="0.0002"/>
            <parameter index="18" name="EQ 頻段 4 增益" parameterValue="0.5"/>
            <parameter index="19" name="EQ 頻段 4 啟用" parameterValue="1"/>
            <parameter index="20" name="EQ 頻段 5 中置頻率" parameterValue="0.580118"/>
            <parameter index="21" name="EQ 頻段 5 Q" parameterValue="0.0002"/>
            <parameter index="22" name="EQ 頻段 5 增益" parameterValue="0.5"/>
            <parameter index="23" name="EQ 頻段 5 啟用" parameterValue="1"/>
            <parameter index="24" name="主控增益" parameterValue="0.6666667"/>
            <parameter index="25" name="恒定 Q" parameterValue="1"/>
            <parameter index="26" name="下限濾鏡順序" parameterValue="0"/>
            <parameter index="27" name="上限頻率濾鏡順序" parameterValue="0"/>
            <parameter index="28" name="超靜音模式" parameterValue="0"/>
            <parameter index="29" name="下限啟用" parameterValue="1"/>
            <parameter index="30" name="上限頻率啟用" parameterValue="1"/>
            <parameter index="31" name="原始取樣速率" parameterValue="0.2296875"/>
            <parameter index="32" name="EQ 頻段 1 頻帶寬" parameterValue="0.0025"/>
            <parameter index="33" name="EQ 頻段 2 頻段寬度" parameterValue="0.01"/>
            <parameter index="34" name="EQ 頻段 3 頻段寬度" parameterValue="0.04"/>
            <parameter index="35" name="EQ 頻段 4 頻段寬度" parameterValue="0.16"/>
            <parameter index="36" name="EQ 頻段 5 頻段寬度" parameterValue="0.64"/>
            <parameter index="37" name="高通濾波啟用" parameterValue="0"/>
            <parameter index="38" name="高通切除頻率" parameterValue="0"/>
            <parameter index="39" name="高通斜率" parameterValue="0.4"/>
            <parameter index="40" name="低通濾波啟用" parameterValue="0"/>
            <parameter index="41" name="低通切除頻率" parameterValue="0.906945"/>
            <parameter index="42" name="低通斜率" parameterValue="0.4"/>
            <parameter index="43" name="不使用" parameterValue="0"/>
            <parameter index="44" name="下限圖示範圍" parameterValue="1"/>
          </component>
        </trackAudioParameters>
        <editParameter parameterIndex="0" slotIndex="4294967280"/>
        <sendList>
          <sendSlot preFader="false" sendOutputID="0" slotIndex="0">
            <component componentGuid="b5a74443-b25d-4bce-8cb8-6cc62c47b9d7" id="sendComponent" powered="false">
              <parameter index="0" name="電源開/關" parameterValue="0"/>
              <parameter index="1" name="電平" parameterValue="0"/>
            </component>
            <component id="sendPan" powered="true"/>
          </sendSlot>
          <sendSlot preFader="false" sendOutputID="0" slotIndex="1">
            <component componentGuid="e076bdcf-86f9-43a8-9d03-979fb134eea3" id="sendComponent" powered="false">
              <parameter index="0" name="電源開/關" parameterValue="0"/>
              <parameter index="1" name="電平" parameterValue="0"/>
            </component>
            <component id="sendPan" powered="true"/>
          </sendSlot>
          <sendSlot preFader="false" sendOutputID="0" slotIndex="2">
            <component componentGuid="745cf915-86a3-4ccc-a949-f03f31652b42" id="sendComponent" powered="false">
              <parameter index="0" name="電源開/關" parameterValue="0"/>
              <parameter index="1" name="電平" parameterValue="0"/>
            </component>
            <component id="sendPan" powered="true"/>
          </sendSlot>
          <sendSlot preFader="false" sendOutputID="0" slotIndex="3">
            <component componentGuid="bd6c4bfa-4cfa-443a-bb25-8fe60e4ed454" id="sendComponent" powered="false">
              <parameter index="0" name="電源開/關" parameterValue="0"/>
              <parameter index="1" name="電平" parameterValue="0"/>
            </component>
            <component id="sendPan" powered="true"/>
          </sendSlot>
          <sendSlot preFader="false" sendOutputID="0" slotIndex="4">
            <component componentGuid="3d54194e-2be4-4405-befb-e1085ca48c52" id="sendComponent" powered="false">
              <parameter index="0" name="電源開/關" parameterValue="0"/>
              <parameter index="1" name="電平" parameterValue="0"/>
            </component>
            <component id="sendPan" powered="true"/>
          </sendSlot>
          <sendSlot preFader="false" sendOutputID="0" slotIndex="5">
            <component componentGuid="77ebbea2-1e9f-4a9d-b167-b984e5d0ba96" id="sendComponent" powered="false">
              <parameter index="0" name="電源開/關" parameterValue="0"/>
              <parameter index="1" name="電平" parameterValue="0"/>
            </component>
            <component id="sendPan" powered="true"/>
          </sendSlot>
          <sendSlot preFader="false" sendOutputID="0" slotIndex="6">
            <component componentGuid="18e0ef0d-e995-4e00-8b1d-da18e8ad7eb8" id="sendComponent" powered="false">
              <parameter index="0" name="電源開/關" parameterValue="0"/>
              <parameter index="1" name="電平" parameterValue="0"/>
            </component>
            <component id="sendPan" powered="true"/>
          </sendSlot>
          <sendSlot preFader="false" sendOutputID="0" slotIndex="7">
            <component componentGuid="6c7dddb0-e5b0-4b66-a3bc-149b985f7c36" id="sendComponent" powered="false">
              <parameter index="0" name="電源開/關" parameterValue="0"/>
              <parameter index="1" name="電平" parameterValue="0"/>
            </component>
            <component id="sendPan" powered="true"/>
          </sendSlot>
          <sendSlot preFader="false" sendOutputID="0" slotIndex="8">
            <component componentGuid="881cf1d0-c3c6-45e9-9220-5a2f857fb2af" id="sendComponent" powered="false">
              <parameter index="0" name="電源開/關" parameterValue="0"/>
              <parameter index="1" name="電平" parameterValue="0"/>
            </component>
            <component id="sendPan" powered="true"/>
          </sendSlot>
          <sendSlot preFader="false" sendOutputID="0" slotIndex="9">
            <component componentGuid="f27370fe-fd42-4e79-bcec-fc17699c8bfb" id="sendComponent" powered="false">
              <parameter index="0" name="電源開/關" parameterValue="0"/>
              <parameter index="1" name="電平" parameterValue="0"/>
            </component>
            <component id="sendPan" powered="true"/>
          </sendSlot>
          <sendSlot preFader="false" sendOutputID="0" slotIndex="10">
            <component componentGuid="de85b972-cccb-48af-9e2c-dee984d49247" id="sendComponent" powered="false">
              <parameter index="0" name="電源開/關" parameterValue="0"/>
              <parameter index="1" name="電平" parameterValue="0"/>
            </component>
            <component id="sendPan" powered="true"/>
          </sendSlot>
          <sendSlot preFader="false" sendOutputID="0" slotIndex="11">
            <component componentGuid="c5b8e150-1237-4090-99ac-377df53a75f2" id="sendComponent" powered="false">
              <parameter index="0" name="電源開/關" parameterValue="0"/>
              <parameter index="1" name="電平" parameterValue="0"/>
            </component>
            <component id="sendPan" powered="true"/>
          </sendSlot>
          <sendSlot preFader="false" sendOutputID="0" slotIndex="12">
            <component componentGuid="52d4041f-e16b-4318-9516-59005eb3a1e7" id="sendComponent" powered="false">
              <parameter index="0" name="電源開/關" parameterValue="0"/>
              <parameter index="1" name="電平" parameterValue="0"/>
            </component>
            <component id="sendPan" powered="true"/>
          </sendSlot>
          <sendSlot preFader="false" sendOutputID="0" slotIndex="13">
            <component componentGuid="85ceb150-a4c8-408d-be51-c08a669853ae" id="sendComponent" powered="false">
              <parameter index="0" name="電源開/關" parameterValue="0"/>
              <parameter index="1" name="電平" parameterValue="0"/>
            </component>
            <component id="sendPan" powered="true"/>
          </sendSlot>
          <sendSlot preFader="false" sendOutputID="0" slotIndex="14">
            <component componentGuid="c5a08db8-313c-43cb-b95a-1c11c106b39d" id="sendComponent" powered="false">
              <parameter index="0" name="電源開/關" parameterValue="0"/>
              <parameter index="1" name="電平" parameterValue="0"/>
            </component>
            <component id="sendPan" powered="true"/>
          </sendSlot>
          <sendSlot preFader="false" sendOutputID="0" slotIndex="15">
            <component componentGuid="3d9b5ff9-a3b5-48bb-bb76-c323c5d0b53a" id="sendComponent" powered="false">
              <parameter index="0" name="電源開/關" parameterValue="0"/>
              <parameter index="1" name="電平" parameterValue="0"/>
            </component>
            <component id="sendPan" powered="true"/>
          </sendSlot>
        </sendList>
        <audioClip clipAutoCrossfade="true" crossFadeHeadClipID="-1" crossFadeTailClipID="1" endPoint="6779" fileID="0" hue="-1" id="0" lockedInTime="false" looped="false" name="woosh_edit" offline="false" select="true" sourceInPoint="0" sourceOutPoint="6779" startPoint="0" zOrder="9">
          <component componentGuid="8911c81f-025b-4f0e-88a8-04fac84316ff" componentID="Audition.Fader" id="clipGain" name="volume" powered="true">
            <parameter index="0" name="volume" parameterValue="1"/>
            <parameter index="1" name="static gain" parameterValue="1"/>
          </component>
          <component componentGuid="82b72ebc-6393-4cf6-8183-4d4f497d1d77" componentID="Audition.Mute" id="clipMute" name="Mute" powered="true">
            <parameter index="0" parameterValue="0"/>
            <parameter index="1" name="mute" parameterValue="0"/>
          </component>
          <component componentGuid="3fcbad9c-2539-4bcd-95a2-b8b7967c3b80" componentID="Audition.StereoPanner" id="clipPan" name="StereoPanner" powered="true">
            <parameter index="0" name="聲像" parameterValue="0"/>
          </component>
          <fadeIn crossFadeLinkType="linkedAsymmetric" endPoint="0" shape="0" startPoint="0" type="cosine"/>
          <fadeOut crossFadeLinkType="linkedAsymmetric" endPoint="6779" shape="18" startPoint="6451" type="log"/>
          <clipStretch adaptiveWindowSize="37" pitchAdjustment="0" preserveFormants="true" stretchMode="realtime" stretchQuality="high" stretchRatio="0.5" stretchType="solo" transientSensitivity="40"/>
          <editParameter parameterIndex="0" slotIndex="4294967281"/>
          <editParameter parameterIndex="0" slotIndex="4294967280"/>
          <channelMap>
            <channel index="0" sourceIndex="0"/>
            <channel index="1" sourceIndex="1"/>
          </channelMap>
        </audioClip>
        <audioClip clipAutoCrossfade="true" crossFadeHeadClipID="0" crossFadeTailClipID="-1" endPoint="13230" fileID="0" hue="-1" id="1" lockedInTime="false" looped="false" name="woosh_edit" offline="false" select="true" sourceInPoint="0" sourceOutPoint="6779" startPoint="6451" zOrder="41">
          <component componentGuid="809e8d72-1e82-482c-bb2c-19e936c27bf0" componentID="Audition.Fader" id="clipGain" name="volume" powered="true">
            <parameter index="0" name="volume" parameterValue="1"/>
            <parameter index="1" name="static gain" parameterValue="1"/>
          </component>
          <component componentGuid="30222a7c-fb34-4a35-9b62-deda6e7735a1" componentID="Audition.Mute" id="clipMute" name="Mute" powered="true">
            <parameter index="0" parameterValue="0"/>
            <parameter index="1" name="mute" parameterValue="0"/>
          </component>
          <component componentGuid="4898f840-190e-4af5-8e1d-e05fa3783647" componentID="Audition.StereoPanner" id="clipPan" name="StereoPanner" powered="true">
            <parameter index="0" name="聲像" parameterValue="0"/>
          </component>
          <fadeIn crossFadeLinkType="linkedAsymmetric" endPoint="328" shape="19" startPoint="0" type="log"/>
          <fadeOut crossFadeLinkType="linkedAsymmetric" endPoint="6779" shape="0" startPoint="6779" type="cosine"/>
          <clipStretch adaptiveWindowSize="37" pitchAdjustment="0" preserveFormants="true" stretchMode="realtime" stretchQuality="high" stretchRatio="0.5" stretchType="solo" transientSensitivity="40"/>
          <editParameter parameterIndex="0" slotIndex="4294967281"/>
          <editParameter parameterIndex="0" slotIndex="4294967280"/>
          <channelMap>
            <channel index="0" sourceIndex="0"/>
            <channel index="1" sourceIndex="1"/>
          </channelMap>
        </audioClip>
        <audioClip clipAutoCrossfade="true" crossFadeHeadClipID="-1" crossFadeTailClipID="-1" endPoint="20009" fileID="0" hue="-1" id="2" lockedInTime="false" looped="false" name="woosh_edit" offline="false" select="true" sourceInPoint="0" sourceOutPoint="6779" startPoint="13230" zOrder="19">
          <component componentGuid="aaa01313-2684-4026-b07d-15f959ed04d9" componentID="Audition.Fader" id="clipGain" name="volume" powered="true">
            <parameter index="0" name="volume" parameterValue="1"/>
            <parameter index="1" name="static gain" parameterValue="1"/>
          </component>
          <component componentGuid="20b29910-28c5-483d-b9fe-db13adfcad27" componentID="Audition.Mute" id="clipMute" name="Mute" powered="true">
            <parameter index="0" parameterValue="0"/>
            <parameter index="1" name="mute" parameterValue="0"/>
          </component>
          <component componentGuid="33c592cb-35a4-4d82-8ecd-b891c562ba5b" componentID="Audition.StereoPanner" id="clipPan" name="StereoPanner" powered="true">
            <parameter index="0" name="聲像" parameterValue="0"/>
          </component>
          <fadeIn crossFadeLinkType="linkedAsymmetric" endPoint="0" shape="18" startPoint="0" type="log"/>
          <fadeOut crossFadeLinkType="linkedAsymmetric" endPoint="6779" shape="18" startPoint="6779" type="log"/>
          <clipStretch adaptiveWindowSize="37" pitchAdjustment="0" preserveFormants="true" stretchMode="realtime" stretchQuality="high" stretchRatio="0.5" stretchType="solo" transientSensitivity="40"/>
          <editParameter parameterIndex="0" slotIndex="4294967281"/>
          <editParameter parameterIndex="0" slotIndex="4294967280"/>
          <channelMap>
            <channel index="0" sourceIndex="0"/>
            <channel index="1" sourceIndex="1"/>
          </channelMap>
        </audioClip>
        <audioClip clipAutoCrossfade="true" crossFadeHeadClipID="-1" crossFadeTailClipID="-1" endPoint="26788" fileID="0" hue="-1" id="3" lockedInTime="false" looped="false" name="woosh_edit" offline="false" select="true" sourceInPoint="0" sourceOutPoint="6779" startPoint="20009" zOrder="22">
          <component componentGuid="035c5964-68fd-4960-aad3-5ef75f4649b0" componentID="Audition.Fader" id="clipGain" name="volume" powered="true">
            <parameter index="0" name="volume" parameterValue="1"/>
            <parameter index="1" name="static gain" parameterValue="1"/>
          </component>
          <component componentGuid="5a311e09-7912-40a4-8d85-a06a0476bf98" componentID="Audition.Mute" id="clipMute" name="Mute" powered="true">
            <parameter index="0" parameterValue="0"/>
            <parameter index="1" name="mute" parameterValue="0"/>
          </component>
          <component componentGuid="27c1fafd-44a9-40bf-902b-7003216f8cee" componentID="Audition.StereoPanner" id="clipPan" name="StereoPanner" powered="true">
            <parameter index="0" name="聲像" parameterValue="0"/>
          </component>
          <fadeIn crossFadeLinkType="linkedAsymmetric" endPoint="0" shape="18" startPoint="0" type="log"/>
          <fadeOut crossFadeLinkType="linkedAsymmetric" endPoint="6779" shape="18" startPoint="6779" type="log"/>
          <clipStretch adaptiveWindowSize="37" pitchAdjustment="0" preserveFormants="true" stretchMode="realtime" stretchQuality="high" stretchRatio="0.5" stretchType="solo" transientSensitivity="40"/>
          <editParameter parameterIndex="0" slotIndex="4294967281"/>
          <editParameter parameterIndex="0" slotIndex="4294967280"/>
          <channelMap>
            <channel index="0" sourceIndex="0"/>
            <channel index="1" sourceIndex="1"/>
          </channelMap>
        </audioClip>
        <audioClip clipAutoCrossfade="true" crossFadeHeadClipID="-1" crossFadeTailClipID="5" endPoint="33567" fileID="0" hue="-1" id="4" lockedInTime="false" looped="false" name="woosh_edit" offline="false" select="true" sourceInPoint="0" sourceOutPoint="6779" startPoint="26788" zOrder="26">
          <component componentGuid="99ef027d-d605-4f53-acb8-19b718c71c7f" componentID="Audition.Fader" id="clipGain" name="volume" powered="true">
            <parameter index="0" name="volume" parameterValue="1"/>
            <parameter index="1" name="static gain" parameterValue="1"/>
          </component>
          <component componentGuid="d2f25f01-4e7f-4180-b08c-a597b5eab4ee" componentID="Audition.Mute" id="clipMute" name="Mute" powered="true">
            <parameter index="0" parameterValue="0"/>
            <parameter index="1" name="mute" parameterValue="0"/>
          </component>
          <component componentGuid="57187439-ab66-4cc5-a0b0-0a1d0be44e25" componentID="Audition.StereoPanner" id="clipPan" name="StereoPanner" powered="true">
            <parameter index="0" name="聲像" parameterValue="0"/>
          </component>
          <fadeIn crossFadeLinkType="linkedAsymmetric" endPoint="0" shape="18" startPoint="0" type="log"/>
          <fadeOut crossFadeLinkType="linkedAsymmetric" endPoint="6779" shape="18" startPoint="6451" type="log"/>
          <clipStretch adaptiveWindowSize="37" pitchAdjustment="0" preserveFormants="true" stretchMode="realtime" stretchQuality="high" stretchRatio="0.5" stretchType="solo" transientSensitivity="40"/>
          <editParameter parameterIndex="0" slotIndex="4294967281"/>
          <editParameter parameterIndex="0" slotIndex="4294967280"/>
          <channelMap>
            <channel index="0" sourceIndex="0"/>
            <channel index="1" sourceIndex="1"/>
          </channelMap>
        </audioClip>
        <audioClip clipAutoCrossfade="true" crossFadeHeadClipID="4" crossFadeTailClipID="-1" endPoint="40018" fileID="0" hue="-1" id="5" lockedInTime="false" looped="false" name="woosh_edit" offline="false" select="true" sourceInPoint="0" sourceOutPoint="6779" startPoint="33239" zOrder="25">
          <component componentGuid="982658d8-09d7-4fae-aaea-f958a86c7196" componentID="Audition.Fader" id="clipGain" name="volume" powered="true">
            <parameter index="0" name="volume" parameterValue="1"/>
            <parameter index="1" name="static gain" parameterValue="1"/>
          </component>
          <component componentGuid="f19a0cac-eadd-4e04-a768-8e0f919c79ff" componentID="Audition.Mute" id="clipMute" name="Mute" powered="true">
            <parameter index="0" parameterValue="0"/>
            <parameter index="1" name="mute" parameterValue="0"/>
          </component>
          <component componentGuid="be7700d0-049c-4093-8dab-b18d1baa95fc" componentID="Audition.StereoPanner" id="clipPan" name="StereoPanner" powered="true">
            <parameter index="0" name="聲像" parameterValue="0"/>
          </component>
          <fadeIn crossFadeLinkType="linkedAsymmetric" endPoint="328" shape="19" startPoint="0" type="log"/>
          <fadeOut crossFadeLinkType="linkedAsymmetric" endPoint="6779" shape="0" startPoint="6779" type="cosine"/>
          <clipStretch adaptiveWindowSize="37" pitchAdjustment="0" preserveFormants="true" stretchMode="realtime" stretchQuality="high" stretchRatio="0.5" stretchType="solo" transientSensitivity="40"/>
          <editParameter parameterIndex="0" slotIndex="4294967281"/>
          <editParameter parameterIndex="0" slotIndex="4294967280"/>
          <channelMap>
            <channel index="0" sourceIndex="0"/>
            <channel index="1" sourceIndex="1"/>
          </channelMap>
        </audioClip>
        <audioClip clipAutoCrossfade="true" crossFadeHeadClipID="-1" crossFadeTailClipID="-1" endPoint="46797" fileID="0" hue="-1" id="6" lockedInTime="false" looped="false" name="woosh_edit" offline="false" select="true" sourceInPoint="0" sourceOutPoint="6779" startPoint="40018" zOrder="25">
          <component componentGuid="777291a3-b6eb-42a9-a717-0b3062acc2cc" componentID="Audition.Fader" id="clipGain" name="volume" powered="true">
            <parameter index="0" name="volume" parameterValue="1"/>
            <parameter index="1" name="static gain" parameterValue="1"/>
          </component>
          <component componentGuid="74af5483-71f8-45a2-b38d-fcfc1cd89064" componentID="Audition.Mute" id="clipMute" name="Mute" powered="true">
            <parameter index="0" parameterValue="0"/>
            <parameter index="1" name="mute" parameterValue="0"/>
          </component>
          <component componentGuid="5c5d8a8e-7180-40fe-84d0-32f63fa6a900" componentID="Audition.StereoPanner" id="clipPan" name="StereoPanner" powered="true">
            <parameter index="0" name="聲像" parameterValue="0"/>
          </component>
          <fadeIn crossFadeLinkType="linkedAsymmetric" endPoint="0" shape="0" startPoint="0" type="cosine"/>
          <fadeOut crossFadeLinkType="linkedAsymmetric" endPoint="6779" shape="18" startPoint="6779" type="log"/>
          <clipStretch adaptiveWindowSize="37" pitchAdjustment="0" preserveFormants="true" stretchMode="realtime" stretchQuality="high" stretchRatio="0.5" stretchType="solo" transientSensitivity="40"/>
          <editParameter parameterIndex="0" slotIndex="4294967281"/>
          <editParameter parameterIndex="0" slotIndex="4294967280"/>
          <channelMap>
            <channel index="0" sourceIndex="0"/>
            <channel index="1" sourceIndex="1"/>
          </channelMap>
        </audioClip>
        <audioClip clipAutoCrossfade="true" crossFadeHeadClipID="-1" crossFadeTailClipID="-1" endPoint="53576" fileID="0" hue="-1" id="7" lockedInTime="false" looped="false" name="woosh_edit" offline="false" select="true" sourceInPoint="0" sourceOutPoint="6779" startPoint="46797" zOrder="25">
          <component componentGuid="8420e456-4788-499f-a33f-33a00273738b" componentID="Audition.Fader" id="clipGain" name="volume" powered="true">
            <parameter index="0" name="volume" parameterValue="1"/>
            <parameter index="1" name="static gain" parameterValue="1"/>
          </component>
          <component componentGuid="463dfbb3-cfaa-4c2f-ba41-e86e40b1c08b" componentID="Audition.Mute" id="clipMute" name="Mute" powered="true">
            <parameter index="0" parameterValue="0"/>
            <parameter index="1" name="mute" parameterValue="0"/>
          </component>
          <component componentGuid="487be085-0726-4b09-8fd4-b8beef8626eb" componentID="Audition.StereoPanner" id="clipPan" name="StereoPanner" powered="true">
            <parameter index="0" name="聲像" parameterValue="0"/>
          </component>
          <fadeIn crossFadeLinkType="linkedAsymmetric" endPoint="0" shape="0" startPoint="0" type="cosine"/>
          <fadeOut crossFadeLinkType="linkedAsymmetric" endPoint="6779" shape="0" startPoint="6779" type="cosine"/>
          <clipStretch adaptiveWindowSize="37" pitchAdjustment="0" preserveFormants="true" stretchMode="realtime" stretchQuality="high" stretchRatio="0.5" stretchType="solo" transientSensitivity="40"/>
          <editParameter parameterIndex="0" slotIndex="4294967281"/>
          <editParameter parameterIndex="0" slotIndex="4294967280"/>
          <channelMap>
            <channel index="0" sourceIndex="0"/>
            <channel index="1" sourceIndex="1"/>
          </channelMap>
        </audioClip>
        <audioClip clipAutoCrossfade="true" crossFadeHeadClipID="-1" crossFadeTailClipID="9" endPoint="60355" fileID="0" hue="-1" id="8" lockedInTime="false" looped="false" name="woosh_edit" offline="false" select="true" sourceInPoint="0" sourceOutPoint="6779" startPoint="53576" zOrder="34">
          <component componentGuid="926d743d-a416-4a5c-a94d-011472be0835" componentID="Audition.Fader" id="clipGain" name="volume" powered="true">
            <parameter index="0" name="volume" parameterValue="1"/>
            <parameter index="1" name="static gain" parameterValue="1"/>
          </component>
          <component componentGuid="46e58008-473e-4753-9a18-2b076ebe4ec6" componentID="Audition.Mute" id="clipMute" name="Mute" powered="true">
            <parameter index="0" parameterValue="0"/>
            <parameter index="1" name="mute" parameterValue="0"/>
          </component>
          <component componentGuid="4bda3c42-d919-408a-a7bf-db22b64b9cfe" componentID="Audition.StereoPanner" id="clipPan" name="StereoPanner" powered="true">
            <parameter index="0" name="聲像" parameterValue="0"/>
          </component>
          <fadeIn crossFadeLinkType="linkedAsymmetric" endPoint="0" shape="19" startPoint="0" type="log"/>
          <fadeOut crossFadeLinkType="linkedAsymmetric" endPoint="6779" shape="18" startPoint="6451" type="log"/>
          <clipStretch adaptiveWindowSize="37" pitchAdjustment="0" preserveFormants="true" stretchMode="realtime" stretchQuality="high" stretchRatio="0.5" stretchType="solo" transientSensitivity="40"/>
          <editParameter parameterIndex="0" slotIndex="4294967281"/>
          <editParameter parameterIndex="0" slotIndex="4294967280"/>
          <channelMap>
            <channel index="0" sourceIndex="0"/>
            <channel index="1" sourceIndex="1"/>
          </channelMap>
        </audioClip>
        <audioClip clipAutoCrossfade="true" crossFadeHeadClipID="8" crossFadeTailClipID="-1" endPoint="66806" fileID="0" hue="-1" id="9" lockedInTime="false" looped="false" name="woosh_edit" offline="false" select="true" sourceInPoint="0" sourceOutPoint="6779" startPoint="60027" zOrder="32">
          <component componentGuid="563764ba-52fd-4dfc-8e76-43591d87dcae" componentID="Audition.Fader" id="clipGain" name="volume" powered="true">
            <parameter index="0" name="volume" parameterValue="1"/>
            <parameter index="1" name="static gain" parameterValue="1"/>
          </component>
          <component componentGuid="65167587-c613-44a1-a911-b802a9178816" componentID="Audition.Mute" id="clipMute" name="Mute" powered="true">
            <parameter index="0" parameterValue="0"/>
            <parameter index="1" name="mute" parameterValue="0"/>
          </component>
          <component componentGuid="97e747f2-2703-483b-b989-4e3a40071368" componentID="Audition.StereoPanner" id="clipPan" name="StereoPanner" powered="true">
            <parameter index="0" name="聲像" parameterValue="0"/>
          </component>
          <fadeIn crossFadeLinkType="linkedAsymmetric" endPoint="328" shape="19" startPoint="0" type="log"/>
          <fadeOut crossFadeLinkType="linkedAsymmetric" endPoint="6779" shape="19" startPoint="6779" type="log"/>
          <clipStretch adaptiveWindowSize="37" pitchAdjustment="0" preserveFormants="true" stretchMode="realtime" stretchQuality="high" stretchRatio="0.5" stretchType="solo" transientSensitivity="40"/>
          <editParameter parameterIndex="0" slotIndex="4294967281"/>
          <editParameter parameterIndex="0" slotIndex="4294967280"/>
          <channelMap>
            <channel index="0" sourceIndex="0"/>
            <channel index="1" sourceIndex="1"/>
          </channelMap>
        </audioClip>
        <audioClip clipAutoCrossfade="true" crossFadeHeadClipID="-1" crossFadeTailClipID="-1" endPoint="73585" fileID="0" hue="-1" id="10" lockedInTime="false" looped="false" name="woosh_edit" offline="false" select="true" sourceInPoint="0" sourceOutPoint="6779" startPoint="66806" zOrder="32">
          <component componentGuid="008b3cb5-0aa7-4e86-84f0-62fe9c7d8225" componentID="Audition.Fader" id="clipGain" name="volume" powered="true">
            <parameter index="0" name="volume" parameterValue="1"/>
            <parameter index="1" name="static gain" parameterValue="1"/>
          </component>
          <component componentGuid="85e2f745-8472-4990-a6d8-dc3a2b1ddb68" componentID="Audition.Mute" id="clipMute" name="Mute" powered="true">
            <parameter index="0" parameterValue="0"/>
            <parameter index="1" name="mute" parameterValue="0"/>
          </component>
          <component componentGuid="c673a03f-a8d1-473f-8776-7a56728e92d5" componentID="Audition.StereoPanner" id="clipPan" name="StereoPanner" powered="true">
            <parameter index="0" name="聲像" parameterValue="0"/>
          </component>
          <fadeIn crossFadeLinkType="linkedAsymmetric" endPoint="0" shape="19" startPoint="0" type="log"/>
          <fadeOut crossFadeLinkType="linkedAsymmetric" endPoint="6779" shape="19" startPoint="6779" type="log"/>
          <clipStretch adaptiveWindowSize="37" pitchAdjustment="0" preserveFormants="true" stretchMode="realtime" stretchQuality="high" stretchRatio="0.5" stretchType="solo" transientSensitivity="40"/>
          <editParameter parameterIndex="0" slotIndex="4294967281"/>
          <editParameter parameterIndex="0" slotIndex="4294967280"/>
          <channelMap>
            <channel index="0" sourceIndex="0"/>
            <channel index="1" sourceIndex="1"/>
          </channelMap>
        </audioClip>
        <audioClip clipAutoCrossfade="true" crossFadeHeadClipID="-1" crossFadeTailClipID="12" endPoint="80364" fileID="0" hue="-1" id="11" lockedInTime="false" looped="false" name="woosh_edit" offline="false" select="true" sourceInPoint="0" sourceOutPoint="6779" startPoint="73585" zOrder="32">
          <component componentGuid="cb4a6ea5-5884-4487-ae20-42db6376bc6e" componentID="Audition.Fader" id="clipGain" name="volume" powered="true">
            <parameter index="0" name="volume" parameterValue="1"/>
            <parameter index="1" name="static gain" parameterValue="1"/>
          </component>
          <component componentGuid="a35567c6-b159-4750-b822-1c9afdf19990" componentID="Audition.Mute" id="clipMute" name="Mute" powered="true">
            <parameter index="0" parameterValue="0"/>
            <parameter index="1" name="mute" parameterValue="0"/>
          </component>
          <component componentGuid="b1327331-0c19-4302-9a59-08e21de5af8a" componentID="Audition.StereoPanner" id="clipPan" name="StereoPanner" powered="true">
            <parameter index="0" name="聲像" parameterValue="0"/>
          </component>
          <fadeIn crossFadeLinkType="linkedAsymmetric" endPoint="0" shape="19" startPoint="0" type="log"/>
          <fadeOut crossFadeLinkType="linkedAsymmetric" endPoint="6779" shape="18" startPoint="6682" type="log"/>
          <clipStretch adaptiveWindowSize="37" pitchAdjustment="0" preserveFormants="true" stretchMode="realtime" stretchQuality="high" stretchRatio="0.5" stretchType="solo" transientSensitivity="40"/>
          <editParameter parameterIndex="0" slotIndex="4294967281"/>
          <editParameter parameterIndex="0" slotIndex="4294967280"/>
          <channelMap>
            <channel index="0" sourceIndex="0"/>
            <channel index="1" sourceIndex="1"/>
          </channelMap>
        </audioClip>
        <audioClip clipAutoCrossfade="true" crossFadeHeadClipID="11" crossFadeTailClipID="13" endPoint="87046" fileID="0" hue="-1" id="12" lockedInTime="false" looped="false" name="woosh_edit" offline="false" select="true" sourceInPoint="0" sourceOutPoint="6779" startPoint="80267" zOrder="38">
          <component componentGuid="a97276a6-f061-4a04-927c-8c7021503d2a" componentID="Audition.Fader" id="clipGain" name="volume" powered="true">
            <parameter index="0" name="volume" parameterValue="1"/>
            <parameter index="1" name="static gain" parameterValue="1"/>
          </component>
          <component componentGuid="8dd8d8c0-c699-4590-870f-60612f0faafe" componentID="Audition.Mute" id="clipMute" name="Mute" powered="true">
            <parameter index="0" parameterValue="0"/>
            <parameter index="1" name="mute" parameterValue="0"/>
          </component>
          <component componentGuid="0d1c9d94-0995-4b13-8e74-cbfff2febd7a" componentID="Audition.StereoPanner" id="clipPan" name="StereoPanner" powered="true">
            <parameter index="0" name="聲像" parameterValue="0"/>
          </component>
          <fadeIn crossFadeLinkType="linkedAsymmetric" endPoint="97" shape="19" startPoint="0" type="log"/>
          <fadeOut crossFadeLinkType="linkedAsymmetric" endPoint="6779" shape="18" startPoint="6451" type="log"/>
          <clipStretch adaptiveWindowSize="37" pitchAdjustment="0" preserveFormants="true" stretchMode="realtime" stretchQuality="high" stretchRatio="0.5" stretchType="solo" transientSensitivity="40"/>
          <editParameter parameterIndex="0" slotIndex="4294967281"/>
          <editParameter parameterIndex="0" slotIndex="4294967280"/>
          <channelMap>
            <channel index="0" sourceIndex="0"/>
            <channel index="1" sourceIndex="1"/>
          </channelMap>
        </audioClip>
        <audioClip clipAutoCrossfade="true" crossFadeHeadClipID="12" crossFadeTailClipID="-1" endPoint="93497" fileID="0" hue="-1" id="13" lockedInTime="false" looped="false" name="woosh_edit" offline="false" select="true" sourceInPoint="0" sourceOutPoint="6779" startPoint="86718" zOrder="37">
          <component componentGuid="53b576e3-ab39-4ea4-9dba-c3b48dbc1326" componentID="Audition.Fader" id="clipGain" name="volume" powered="true">
            <parameter index="0" name="volume" parameterValue="1"/>
            <parameter index="1" name="static gain" parameterValue="1"/>
          </component>
          <component componentGuid="b04f2363-bbb3-44d1-99c5-df0628df92e4" componentID="Audition.Mute" id="clipMute" name="Mute" powered="true">
            <parameter index="0" parameterValue="0"/>
            <parameter index="1" name="mute" parameterValue="0"/>
          </component>
          <component componentGuid="abd21cfa-271d-4c30-b455-990284305298" componentID="Audition.StereoPanner" id="clipPan" name="StereoPanner" powered="true">
            <parameter index="0" name="聲像" parameterValue="0"/>
          </component>
          <fadeIn crossFadeLinkType="linkedAsymmetric" endPoint="328" shape="19" startPoint="0" type="log"/>
          <fadeOut crossFadeLinkType="linkedAsymmetric" endPoint="6779" shape="0" startPoint="6779" type="cosine"/>
          <clipStretch adaptiveWindowSize="37" pitchAdjustment="0" preserveFormants="true" stretchMode="realtime" stretchQuality="high" stretchRatio="0.5" stretchType="solo" transientSensitivity="40"/>
          <editParameter parameterIndex="0" slotIndex="4294967281"/>
          <editParameter parameterIndex="0" slotIndex="4294967280"/>
          <channelMap>
            <channel index="0" sourceIndex="0"/>
            <channel index="1" sourceIndex="1"/>
          </channelMap>
        </audioClip>
        <audioClip clipAutoCrossfade="true" crossFadeHeadClipID="-1" crossFadeTailClipID="-1" endPoint="100276" fileID="0" hue="-1" id="14" lockedInTime="false" looped="false" name="woosh_edit" offline="false" select="true" sourceInPoint="0" sourceOutPoint="6779" startPoint="93497" zOrder="37">
          <component componentGuid="a9b9b41a-02b1-430d-93ef-3f6c8471d7c2" componentID="Audition.Fader" id="clipGain" name="volume" powered="true">
            <parameter index="0" name="volume" parameterValue="1"/>
            <parameter index="1" name="static gain" parameterValue="1"/>
          </component>
          <component componentGuid="0b89acd5-713c-444c-a562-168831b81d37" componentID="Audition.Mute" id="clipMute" name="Mute" powered="true">
            <parameter index="0" parameterValue="0"/>
            <parameter index="1" name="mute" parameterValue="0"/>
          </component>
          <component componentGuid="071e9b9e-5b78-498c-83f4-03b6dd88dab8" componentID="Audition.StereoPanner" id="clipPan" name="StereoPanner" powered="true">
            <parameter index="0" name="聲像" parameterValue="0"/>
          </component>
          <fadeIn crossFadeLinkType="linkedAsymmetric" endPoint="0" shape="0" startPoint="0" type="cosine"/>
          <fadeOut crossFadeLinkType="linkedAsymmetric" endPoint="6779" shape="0" startPoint="6779" type="cosine"/>
          <clipStretch adaptiveWindowSize="37" pitchAdjustment="0" preserveFormants="true" stretchMode="realtime" stretchQuality="high" stretchRatio="0.5" stretchType="solo" transientSensitivity="40"/>
          <editParameter parameterIndex="0" slotIndex="4294967281"/>
          <editParameter parameterIndex="0" slotIndex="4294967280"/>
          <channelMap>
            <channel index="0" sourceIndex="0"/>
            <channel index="1" sourceIndex="1"/>
          </channelMap>
        </audioClip>
        <audioClip clipAutoCrossfade="true" crossFadeHeadClipID="-1" crossFadeTailClipID="-1" endPoint="107055" fileID="0" hue="-1" id="15" lockedInTime="false" looped="false" name="woosh_edit" offline="false" select="true" sourceInPoint="0" sourceOutPoint="6779" startPoint="100276" zOrder="37">
          <component componentGuid="3054db82-0a69-4c9b-99f2-f6a651e1378b" componentID="Audition.Fader" id="clipGain" name="volume" powered="true">
            <parameter index="0" name="volume" parameterValue="1"/>
            <parameter index="1" name="static gain" parameterValue="1"/>
          </component>
          <component componentGuid="24825623-2cfb-4ccf-aa52-2e0e2ead4ba2" componentID="Audition.Mute" id="clipMute" name="Mute" powered="true">
            <parameter index="0" parameterValue="0"/>
            <parameter index="1" name="mute" parameterValue="0"/>
          </component>
          <component componentGuid="71fb59ee-7265-47f8-abc1-60a37b555228" componentID="Audition.StereoPanner" id="clipPan" name="StereoPanner" powered="true">
            <parameter index="0" name="聲像" parameterValue="0"/>
          </component>
          <fadeIn crossFadeLinkType="linkedAsymmetric" endPoint="0" shape="0" startPoint="0" type="cosine"/>
          <fadeOut crossFadeLinkType="linkedAsymmetric" endPoint="6779" shape="0" startPoint="6779" type="cosine"/>
          <clipStretch adaptiveWindowSize="37" pitchAdjustment="0" preserveFormants="true" stretchMode="realtime" stretchQuality="high" stretchRatio="0.5" stretchType="solo" transientSensitivity="40"/>
          <editParameter parameterIndex="0" slotIndex="4294967281"/>
          <editParameter parameterIndex="0" slotIndex="4294967280"/>
          <channelMap>
            <channel index="0" sourceIndex="0"/>
            <channel index="1" sourceIndex="1"/>
          </channelMap>
        </audioClip>
      </audioTrack>
      <audioTrack automationLaneOpenState="false" id="10002" index="2" select="false" visible="true">
        <trackParameters trackHeight="172" trackHue="124.6628952026367188" trackMinimized="false">
          <name>軌道 2</name>
        </trackParameters>
        <trackAudioParameters audioChannelType="stereo" automationMode="1" monitoring="false" recordArmed="false" solo="false" soloSafe="false">
          <trackOutput outputID="10000" type="trackID"/>
          <trackInput inputID="1"/>
          <component componentGuid="ec896338-e753-4e04-9bcc-c9c1c261391e" componentID="Audition.Fader" id="trackFader" name="volume" powered="true">
            <parameter index="0" name="volume" parameterValue="1"/>
            <parameter index="1" name="static gain" parameterValue="1"/>
          </component>
          <component componentGuid="8c677ede-db61-4c88-9fa6-6bcd9d5e911a" componentID="Audition.Mute" id="trackMute" name="Mute" powered="true">
            <parameter index="0" parameterValue="0"/>
            <parameter index="1" name="mute" parameterValue="0"/>
          </component>
          <component componentGuid="ee292390-b333-42e4-8ea2-aaf5f9447e10" componentID="Audition.StereoPanner" id="trackPan" name="StereoPanner" powered="true">
            <parameter index="0" name="聲像" parameterValue="0"/>
          </component>
          <component componentGuid="5ec720dc-05d6-4e0c-8c94-6fce519b85bb" componentID="Audition.EQ" id="trackEQ" name="EQ" powered="false">
            <parameter index="0" name="下限頻率" parameterValue="0.0009079"/>
            <parameter index="1" name="下限增益" parameterValue="0.5"/>
            <parameter index="2" name="上限頻率" parameterValue="0.8161598"/>
            <parameter index="3" name="上限頻率增益" parameterValue="0.5"/>
            <parameter index="4" name="EQ 頻段 1 中置頻率" parameterValue="0.0013618"/>
            <parameter index="5" name="EQ 頻段 1 Q" parameterValue="0.0002"/>
            <parameter index="6" name="EQ 頻段 1 增益" parameterValue="0.5"/>
            <parameter index="7" name="EQ 頻段 1 啟用" parameterValue="1"/>
            <parameter index="8" name="EQ 頻段 2 中置頻率" parameterValue="0.0081707"/>
            <parameter index="9" name="EQ 頻段 2 Q" parameterValue="0.0002"/>
            <parameter index="10" name="EQ 頻段 2 增益" parameterValue="0.5"/>
            <parameter index="11" name="EQ 頻段 2 啟用" parameterValue="1"/>
            <parameter index="12" name="EQ 頻段 3 中置頻率" parameterValue="0.0354063"/>
            <parameter index="13" name="EQ 頻段 3 Q" parameterValue="0.0002"/>
            <parameter index="14" name="EQ 頻段 3 增益" parameterValue="0.5"/>
            <parameter index="15" name="EQ 頻段 3 啟用" parameterValue="1"/>
            <parameter index="16" name="EQ 頻段 4 中置頻率" parameterValue="0.1443486"/>
            <parameter index="17" name="EQ 頻段 4 Q" parameterValue="0.0002"/>
            <parameter index="18" name="EQ 頻段 4 增益" parameterValue="0.5"/>
            <parameter index="19" name="EQ 頻段 4 啟用" parameterValue="1"/>
            <parameter index="20" name="EQ 頻段 5 中置頻率" parameterValue="0.580118"/>
            <parameter index="21" name="EQ 頻段 5 Q" parameterValue="0.0002"/>
            <parameter index="22" name="EQ 頻段 5 增益" parameterValue="0.5"/>
            <parameter index="23" name="EQ 頻段 5 啟用" parameterValue="1"/>
            <parameter index="24" name="主控增益" parameterValue="0.6666667"/>
            <parameter index="25" name="恒定 Q" parameterValue="1"/>
            <parameter index="26" name="下限濾鏡順序" parameterValue="0"/>
            <parameter index="27" name="上限頻率濾鏡順序" parameterValue="0"/>
            <parameter index="28" name="超靜音模式" parameterValue="0"/>
            <parameter index="29" name="下限啟用" parameterValue="1"/>
            <parameter index="30" name="上限頻率啟用" parameterValue="1"/>
            <parameter index="31" name="原始取樣速率" parameterValue="0.2296875"/>
            <parameter index="32" name="EQ 頻段 1 頻帶寬" parameterValue="0.0025"/>
            <parameter index="33" name="EQ 頻段 2 頻段寬度" parameterValue="0.01"/>
            <parameter index="34" name="EQ 頻段 3 頻段寬度" parameterValue="0.04"/>
            <parameter index="35" name="EQ 頻段 4 頻段寬度" parameterValue="0.16"/>
            <parameter index="36" name="EQ 頻段 5 頻段寬度" parameterValue="0.64"/>
            <parameter index="37" name="高通濾波啟用" parameterValue="0"/>
            <parameter index="38" name="高通切除頻率" parameterValue="0"/>
            <parameter index="39" name="高通斜率" parameterValue="0.4"/>
            <parameter index="40" name="低通濾波啟用" parameterValue="0"/>
            <parameter index="41" name="低通切除頻率" parameterValue="0.906945"/>
            <parameter index="42" name="低通斜率" parameterValue="0.4"/>
            <parameter index="43" name="不使用" parameterValue="0"/>
            <parameter index="44" name="下限圖示範圍" parameterValue="1"/>
          </component>
        </trackAudioParameters>
        <editParameter parameterIndex="0" slotIndex="4294967280"/>
        <sendList>
          <sendSlot preFader="false" sendOutputID="0" slotIndex="0">
            <component componentGuid="ba5468a7-79fd-4f43-a3ab-7743ba7a1417" id="sendComponent" powered="false">
              <parameter index="0" name="電源開/關" parameterValue="0"/>
              <parameter index="1" name="電平" parameterValue="0"/>
            </component>
            <component id="sendPan" powered="true"/>
          </sendSlot>
          <sendSlot preFader="false" sendOutputID="0" slotIndex="1">
            <component componentGuid="13b306d6-22cc-4ff8-88e1-9a37e20e2cde" id="sendComponent" powered="false">
              <parameter index="0" name="電源開/關" parameterValue="0"/>
              <parameter index="1" name="電平" parameterValue="0"/>
            </component>
            <component id="sendPan" powered="true"/>
          </sendSlot>
          <sendSlot preFader="false" sendOutputID="0" slotIndex="2">
            <component componentGuid="2e6765ad-b737-42ef-8c44-4b0d693febc8" id="sendComponent" powered="false">
              <parameter index="0" name="電源開/關" parameterValue="0"/>
              <parameter index="1" name="電平" parameterValue="0"/>
            </component>
            <component id="sendPan" powered="true"/>
          </sendSlot>
          <sendSlot preFader="false" sendOutputID="0" slotIndex="3">
            <component componentGuid="772a3142-b776-4953-b72e-813b5a36d2e0" id="sendComponent" powered="false">
              <parameter index="0" name="電源開/關" parameterValue="0"/>
              <parameter index="1" name="電平" parameterValue="0"/>
            </component>
            <component id="sendPan" powered="true"/>
          </sendSlot>
          <sendSlot preFader="false" sendOutputID="0" slotIndex="4">
            <component componentGuid="942da05c-c28a-44db-a05b-1231888434ad" id="sendComponent" powered="false">
              <parameter index="0" name="電源開/關" parameterValue="0"/>
              <parameter index="1" name="電平" parameterValue="0"/>
            </component>
            <component id="sendPan" powered="true"/>
          </sendSlot>
          <sendSlot preFader="false" sendOutputID="0" slotIndex="5">
            <component componentGuid="0e7deef6-cacf-46bb-8cf3-8b4d94189c94" id="sendComponent" powered="false">
              <parameter index="0" name="電源開/關" parameterValue="0"/>
              <parameter index="1" name="電平" parameterValue="0"/>
            </component>
            <component id="sendPan" powered="true"/>
          </sendSlot>
          <sendSlot preFader="false" sendOutputID="0" slotIndex="6">
            <component componentGuid="4f645844-5092-4fa5-b294-f77977eac3bb" id="sendComponent" powered="false">
              <parameter index="0" name="電源開/關" parameterValue="0"/>
              <parameter index="1" name="電平" parameterValue="0"/>
            </component>
            <component id="sendPan" powered="true"/>
          </sendSlot>
          <sendSlot preFader="false" sendOutputID="0" slotIndex="7">
            <component componentGuid="f82077dd-5a79-4a7b-b820-1000d556a3e1" id="sendComponent" powered="false">
              <parameter index="0" name="電源開/關" parameterValue="0"/>
              <parameter index="1" name="電平" parameterValue="0"/>
            </component>
            <component id="sendPan" powered="true"/>
          </sendSlot>
          <sendSlot preFader="false" sendOutputID="0" slotIndex="8">
            <component componentGuid="c3b040e8-a19e-4b41-9c81-c81d57e61ae4" id="sendComponent" powered="false">
              <parameter index="0" name="電源開/關" parameterValue="0"/>
              <parameter index="1" name="電平" parameterValue="0"/>
            </component>
            <component id="sendPan" powered="true"/>
          </sendSlot>
          <sendSlot preFader="false" sendOutputID="0" slotIndex="9">
            <component componentGuid="0ddbb77c-4f9f-4761-b841-6286f574c2da" id="sendComponent" powered="false">
              <parameter index="0" name="電源開/關" parameterValue="0"/>
              <parameter index="1" name="電平" parameterValue="0"/>
            </component>
            <component id="sendPan" powered="true"/>
          </sendSlot>
          <sendSlot preFader="false" sendOutputID="0" slotIndex="10">
            <component componentGuid="4c71030e-a24f-4502-accb-24618aaa5dff" id="sendComponent" powered="false">
              <parameter index="0" name="電源開/關" parameterValue="0"/>
              <parameter index="1" name="電平" parameterValue="0"/>
            </component>
            <component id="sendPan" powered="true"/>
          </sendSlot>
          <sendSlot preFader="false" sendOutputID="0" slotIndex="11">
            <component componentGuid="f9bae104-52fe-470a-8989-2091058cf894" id="sendComponent" powered="false">
              <parameter index="0" name="電源開/關" parameterValue="0"/>
              <parameter index="1" name="電平" parameterValue="0"/>
            </component>
            <component id="sendPan" powered="true"/>
          </sendSlot>
          <sendSlot preFader="false" sendOutputID="0" slotIndex="12">
            <component componentGuid="13aadae5-ea55-44fa-bb28-4ac317389ac1" id="sendComponent" powered="false">
              <parameter index="0" name="電源開/關" parameterValue="0"/>
              <parameter index="1" name="電平" parameterValue="0"/>
            </component>
            <component id="sendPan" powered="true"/>
          </sendSlot>
          <sendSlot preFader="false" sendOutputID="0" slotIndex="13">
            <component componentGuid="6bd39299-a869-4a4b-b0f1-1fa208ea3d62" id="sendComponent" powered="false">
              <parameter index="0" name="電源開/關" parameterValue="0"/>
              <parameter index="1" name="電平" parameterValue="0"/>
            </component>
            <component id="sendPan" powered="true"/>
          </sendSlot>
          <sendSlot preFader="false" sendOutputID="0" slotIndex="14">
            <component componentGuid="a0128585-446c-49af-8eb9-bc7623fa2ef4" id="sendComponent" powered="false">
              <parameter index="0" name="電源開/關" parameterValue="0"/>
              <parameter index="1" name="電平" parameterValue="0"/>
            </component>
            <component id="sendPan" powered="true"/>
          </sendSlot>
          <sendSlot preFader="false" sendOutputID="0" slotIndex="15">
            <component componentGuid="0bb23ca6-b65b-4e00-acb7-fbc805e3ec73" id="sendComponent" powered="false">
              <parameter index="0" name="電源開/關" parameterValue="0"/>
              <parameter index="1" name="電平" parameterValue="0"/>
            </component>
            <component id="sendPan" powered="true"/>
          </sendSlot>
        </sendList>
        <audioClip clipAutoCrossfade="true" crossFadeHeadClipID="-1" crossFadeTailClipID="1" endPoint="8820" fileID="0" hue="-1" id="0" lockedInTime="false" looped="false" name="woosh_edit" offline="false" select="true" sourceInPoint="0" sourceOutPoint="6779" startPoint="2041" zOrder="14">
          <component componentGuid="2054dab5-aa72-4a13-8f59-6c70393f1a38" componentID="Audition.Fader" id="clipGain" name="volume" powered="true">
            <parameter index="0" name="volume" parameterValue="1"/>
            <parameter index="1" name="static gain" parameterValue="1"/>
          </component>
          <component componentGuid="eb8d0ed3-fc20-4411-a12b-88b521373d1a" componentID="Audition.Mute" id="clipMute" name="Mute" powered="true">
            <parameter index="0" parameterValue="0"/>
            <parameter index="1" name="mute" parameterValue="0"/>
          </component>
          <component componentGuid="c9323907-0cfc-46cc-8a4c-21ad707189c2" componentID="Audition.StereoPanner" id="clipPan" name="StereoPanner" powered="true">
            <parameter index="0" name="聲像" parameterValue="0"/>
          </component>
          <fadeIn crossFadeLinkType="linkedAsymmetric" endPoint="0" shape="0" startPoint="0" type="cosine"/>
          <fadeOut crossFadeLinkType="linkedAsymmetric" endPoint="6779" shape="18" startPoint="6451" type="log"/>
          <clipStretch adaptiveWindowSize="37" pitchAdjustment="0" preserveFormants="true" stretchMode="realtime" stretchQuality="high" stretchRatio="0.5" stretchType="solo" transientSensitivity="40"/>
          <editParameter parameterIndex="0" slotIndex="4294967281"/>
          <editParameter parameterIndex="0" slotIndex="4294967280"/>
          <channelMap>
            <channel index="0" sourceIndex="0"/>
            <channel index="1" sourceIndex="1"/>
          </channelMap>
        </audioClip>
        <audioClip clipAutoCrossfade="true" crossFadeHeadClipID="0" crossFadeTailClipID="-1" endPoint="15271" fileID="0" hue="-1" id="1" lockedInTime="false" looped="false" name="woosh_edit" offline="false" select="true" sourceInPoint="0" sourceOutPoint="6779" startPoint="8492" zOrder="16">
          <component componentGuid="f0d95c20-abc1-4f93-a2cb-f314e85c062f" componentID="Audition.Fader" id="clipGain" name="volume" powered="true">
            <parameter index="0" name="volume" parameterValue="1"/>
            <parameter index="1" name="static gain" parameterValue="1"/>
          </component>
          <component componentGuid="0cb884c8-5178-4ba7-ab3d-db05c95465b3" componentID="Audition.Mute" id="clipMute" name="Mute" powered="true">
            <parameter index="0" parameterValue="0"/>
            <parameter index="1" name="mute" parameterValue="0"/>
          </component>
          <component componentGuid="f5b00059-e51c-4825-8589-363f34a0f940" componentID="Audition.StereoPanner" id="clipPan" name="StereoPanner" powered="true">
            <parameter index="0" name="聲像" parameterValue="0"/>
          </component>
          <fadeIn crossFadeLinkType="linkedAsymmetric" endPoint="328" shape="19" startPoint="0" type="log"/>
          <fadeOut crossFadeLinkType="linkedAsymmetric" endPoint="6779" shape="0" startPoint="6779" type="cosine"/>
          <clipStretch adaptiveWindowSize="37" pitchAdjustment="0" preserveFormants="true" stretchMode="realtime" stretchQuality="high" stretchRatio="0.5" stretchType="solo" transientSensitivity="40"/>
          <editParameter parameterIndex="0" slotIndex="4294967281"/>
          <editParameter parameterIndex="0" slotIndex="4294967280"/>
          <channelMap>
            <channel index="0" sourceIndex="0"/>
            <channel index="1" sourceIndex="1"/>
          </channelMap>
        </audioClip>
        <audioClip clipAutoCrossfade="true" crossFadeHeadClipID="-1" crossFadeTailClipID="-1" endPoint="22050" fileID="0" hue="-1" id="2" lockedInTime="false" looped="false" name="woosh_edit" offline="false" select="true" sourceInPoint="0" sourceOutPoint="6779" startPoint="15271" zOrder="19">
          <component componentGuid="2ee0272f-4401-47a9-92c3-0be3fe8bdf43" componentID="Audition.Fader" id="clipGain" name="volume" powered="true">
            <parameter index="0" name="volume" parameterValue="1"/>
            <parameter index="1" name="static gain" parameterValue="1"/>
          </component>
          <component componentGuid="9515ebde-9e19-4e62-9961-877af37a7969" componentID="Audition.Mute" id="clipMute" name="Mute" powered="true">
            <parameter index="0" parameterValue="0"/>
            <parameter index="1" name="mute" parameterValue="0"/>
          </component>
          <component componentGuid="4729820c-c02a-4e5d-89ee-263ab0b1ee42" componentID="Audition.StereoPanner" id="clipPan" name="StereoPanner" powered="true">
            <parameter index="0" name="聲像" parameterValue="0"/>
          </component>
          <fadeIn crossFadeLinkType="linkedAsymmetric" endPoint="0" shape="18" startPoint="0" type="log"/>
          <fadeOut crossFadeLinkType="linkedAsymmetric" endPoint="6779" shape="18" startPoint="6779" type="log"/>
          <clipStretch adaptiveWindowSize="37" pitchAdjustment="0" preserveFormants="true" stretchMode="realtime" stretchQuality="high" stretchRatio="0.5" stretchType="solo" transientSensitivity="40"/>
          <editParameter parameterIndex="0" slotIndex="4294967281"/>
          <editParameter parameterIndex="0" slotIndex="4294967280"/>
          <channelMap>
            <channel index="0" sourceIndex="0"/>
            <channel index="1" sourceIndex="1"/>
          </channelMap>
        </audioClip>
        <audioClip clipAutoCrossfade="true" crossFadeHeadClipID="-1" crossFadeTailClipID="-1" endPoint="28829" fileID="0" hue="-1" id="3" lockedInTime="false" looped="false" name="woosh_edit" offline="false" select="true" sourceInPoint="0" sourceOutPoint="6779" startPoint="22050" zOrder="22">
          <component componentGuid="b7f3703c-02b9-4104-bf18-e5445907ae47" componentID="Audition.Fader" id="clipGain" name="volume" powered="true">
            <parameter index="0" name="volume" parameterValue="1"/>
            <parameter index="1" name="static gain" parameterValue="1"/>
          </component>
          <component componentGuid="98ead92e-f759-4410-8772-9b38abd758e9" componentID="Audition.Mute" id="clipMute" name="Mute" powered="true">
            <parameter index="0" parameterValue="0"/>
            <parameter index="1" name="mute" parameterValue="0"/>
          </component>
          <component componentGuid="6a9052d1-9762-4bec-95cf-04417f39a2b1" componentID="Audition.StereoPanner" id="clipPan" name="StereoPanner" powered="true">
            <parameter index="0" name="聲像" parameterValue="0"/>
          </component>
          <fadeIn crossFadeLinkType="linkedAsymmetric" endPoint="0" shape="18" startPoint="0" type="log"/>
          <fadeOut crossFadeLinkType="linkedAsymmetric" endPoint="6779" shape="18" startPoint="6779" type="log"/>
          <clipStretch adaptiveWindowSize="37" pitchAdjustment="0" preserveFormants="true" stretchMode="realtime" stretchQuality="high" stretchRatio="0.5" stretchType="solo" transientSensitivity="40"/>
          <editParameter parameterIndex="0" slotIndex="4294967281"/>
          <editParameter parameterIndex="0" slotIndex="4294967280"/>
          <channelMap>
            <channel index="0" sourceIndex="0"/>
            <channel index="1" sourceIndex="1"/>
          </channelMap>
        </audioClip>
        <audioClip clipAutoCrossfade="true" crossFadeHeadClipID="-1" crossFadeTailClipID="5" endPoint="35608" fileID="0" hue="-1" id="4" lockedInTime="false" looped="false" name="woosh_edit" offline="false" select="true" sourceInPoint="0" sourceOutPoint="6779" startPoint="28829" zOrder="25">
          <component componentGuid="b6863aed-3013-4af4-a783-9e4e5c80e1fb" componentID="Audition.Fader" id="clipGain" name="volume" powered="true">
            <parameter index="0" name="volume" parameterValue="1"/>
            <parameter index="1" name="static gain" parameterValue="1"/>
          </component>
          <component componentGuid="2db505dc-7bf5-43d8-ab1a-24b9e048ae9c" componentID="Audition.Mute" id="clipMute" name="Mute" powered="true">
            <parameter index="0" parameterValue="0"/>
            <parameter index="1" name="mute" parameterValue="0"/>
          </component>
          <component componentGuid="180c9936-4194-49a6-8d9a-db791181d95f" componentID="Audition.StereoPanner" id="clipPan" name="StereoPanner" powered="true">
            <parameter index="0" name="聲像" parameterValue="0"/>
          </component>
          <fadeIn crossFadeLinkType="linkedAsymmetric" endPoint="0" shape="18" startPoint="0" type="log"/>
          <fadeOut crossFadeLinkType="linkedAsymmetric" endPoint="6779" shape="18" startPoint="6451" type="log"/>
          <clipStretch adaptiveWindowSize="37" pitchAdjustment="0" preserveFormants="true" stretchMode="realtime" stretchQuality="high" stretchRatio="0.5" stretchType="solo" transientSensitivity="40"/>
          <editParameter parameterIndex="0" slotIndex="4294967281"/>
          <editParameter parameterIndex="0" slotIndex="4294967280"/>
          <channelMap>
            <channel index="0" sourceIndex="0"/>
            <channel index="1" sourceIndex="1"/>
          </channelMap>
        </audioClip>
        <audioClip clipAutoCrossfade="true" crossFadeHeadClipID="4" crossFadeTailClipID="-1" endPoint="42059" fileID="0" hue="-1" id="5" lockedInTime="false" looped="false" name="woosh_edit" offline="false" select="true" sourceInPoint="0" sourceOutPoint="6779" startPoint="35280" zOrder="25">
          <component componentGuid="bec5dff2-9fef-49c8-aad9-8d60602054fe" componentID="Audition.Fader" id="clipGain" name="volume" powered="true">
            <parameter index="0" name="volume" parameterValue="1"/>
            <parameter index="1" name="static gain" parameterValue="1"/>
          </component>
          <component componentGuid="ad0e7561-9401-4440-a5ee-415279010bbc" componentID="Audition.Mute" id="clipMute" name="Mute" powered="true">
            <parameter index="0" parameterValue="0"/>
            <parameter index="1" name="mute" parameterValue="0"/>
          </component>
          <component componentGuid="6a8c7cfb-a228-42b8-a0ad-9d261347bc14" componentID="Audition.StereoPanner" id="clipPan" name="StereoPanner" powered="true">
            <parameter index="0" name="聲像" parameterValue="0"/>
          </component>
          <fadeIn crossFadeLinkType="linkedAsymmetric" endPoint="328" shape="19" startPoint="0" type="log"/>
          <fadeOut crossFadeLinkType="linkedAsymmetric" endPoint="6779" shape="0" startPoint="6779" type="cosine"/>
          <clipStretch adaptiveWindowSize="37" pitchAdjustment="0" preserveFormants="true" stretchMode="realtime" stretchQuality="high" stretchRatio="0.5" stretchType="solo" transientSensitivity="40"/>
          <editParameter parameterIndex="0" slotIndex="4294967281"/>
          <editParameter parameterIndex="0" slotIndex="4294967280"/>
          <channelMap>
            <channel index="0" sourceIndex="0"/>
            <channel index="1" sourceIndex="1"/>
          </channelMap>
        </audioClip>
        <audioClip clipAutoCrossfade="true" crossFadeHeadClipID="-1" crossFadeTailClipID="-1" endPoint="48838" fileID="0" hue="-1" id="6" lockedInTime="false" looped="false" name="woosh_edit" offline="false" select="true" sourceInPoint="0" sourceOutPoint="6779" startPoint="42059" zOrder="27">
          <component componentGuid="094745fb-d1c2-4b89-aca3-0ae0a1acac95" componentID="Audition.Fader" id="clipGain" name="volume" powered="true">
            <parameter index="0" name="volume" parameterValue="1"/>
            <parameter index="1" name="static gain" parameterValue="1"/>
          </component>
          <component componentGuid="a72844df-a152-4f94-9d65-29a184170f2a" componentID="Audition.Mute" id="clipMute" name="Mute" powered="true">
            <parameter index="0" parameterValue="0"/>
            <parameter index="1" name="mute" parameterValue="0"/>
          </component>
          <component componentGuid="b8c8ec02-ffa4-4eb2-8af2-37d7744c025d" componentID="Audition.StereoPanner" id="clipPan" name="StereoPanner" powered="true">
            <parameter index="0" name="聲像" parameterValue="0"/>
          </component>
          <fadeIn crossFadeLinkType="linkedAsymmetric" endPoint="0" shape="0" startPoint="0" type="cosine"/>
          <fadeOut crossFadeLinkType="linkedAsymmetric" endPoint="6779" shape="18" startPoint="6779" type="log"/>
          <clipStretch adaptiveWindowSize="37" pitchAdjustment="0" preserveFormants="true" stretchMode="realtime" stretchQuality="high" stretchRatio="0.5" stretchType="solo" transientSensitivity="40"/>
          <editParameter parameterIndex="0" slotIndex="4294967281"/>
          <editParameter parameterIndex="0" slotIndex="4294967280"/>
          <channelMap>
            <channel index="0" sourceIndex="0"/>
            <channel index="1" sourceIndex="1"/>
          </channelMap>
        </audioClip>
        <audioClip clipAutoCrossfade="true" crossFadeHeadClipID="-1" crossFadeTailClipID="-1" endPoint="55617" fileID="0" hue="-1" id="7" lockedInTime="false" looped="false" name="woosh_edit" offline="false" select="true" sourceInPoint="0" sourceOutPoint="6779" startPoint="48838" zOrder="25">
          <component componentGuid="b17f0165-eae4-4453-94b3-f83706df4484" componentID="Audition.Fader" id="clipGain" name="volume" powered="true">
            <parameter index="0" name="volume" parameterValue="1"/>
            <parameter index="1" name="static gain" parameterValue="1"/>
          </component>
          <component componentGuid="17e36bcd-e796-413c-8945-f0a36f971835" componentID="Audition.Mute" id="clipMute" name="Mute" powered="true">
            <parameter index="0" parameterValue="0"/>
            <parameter index="1" name="mute" parameterValue="0"/>
          </component>
          <component componentGuid="7189c134-d0f8-4223-bddd-522260795704" componentID="Audition.StereoPanner" id="clipPan" name="StereoPanner" powered="true">
            <parameter index="0" name="聲像" parameterValue="0"/>
          </component>
          <fadeIn crossFadeLinkType="linkedAsymmetric" endPoint="0" shape="0" startPoint="0" type="cosine"/>
          <fadeOut crossFadeLinkType="linkedAsymmetric" endPoint="6779" shape="0" startPoint="6779" type="cosine"/>
          <clipStretch adaptiveWindowSize="37" pitchAdjustment="0" preserveFormants="true" stretchMode="realtime" stretchQuality="high" stretchRatio="0.5" stretchType="solo" transientSensitivity="40"/>
          <editParameter parameterIndex="0" slotIndex="4294967281"/>
          <editParameter parameterIndex="0" slotIndex="4294967280"/>
          <channelMap>
            <channel index="0" sourceIndex="0"/>
            <channel index="1" sourceIndex="1"/>
          </channelMap>
        </audioClip>
        <audioClip clipAutoCrossfade="true" crossFadeHeadClipID="-1" crossFadeTailClipID="9" endPoint="62396" fileID="0" hue="-1" id="8" lockedInTime="false" looped="false" name="woosh_edit" offline="false" select="true" sourceInPoint="0" sourceOutPoint="6779" startPoint="55617" zOrder="32">
          <component componentGuid="664d9eaa-c11b-4f55-b42b-511cecc643b3" componentID="Audition.Fader" id="clipGain" name="volume" powered="true">
            <parameter index="0" name="volume" parameterValue="1"/>
            <parameter index="1" name="static gain" parameterValue="1"/>
          </component>
          <component componentGuid="49c9596f-7964-4027-a5ca-56b987e447a2" componentID="Audition.Mute" id="clipMute" name="Mute" powered="true">
            <parameter index="0" parameterValue="0"/>
            <parameter index="1" name="mute" parameterValue="0"/>
          </component>
          <component componentGuid="ac922c77-a159-4721-b2a3-1135abd8c368" componentID="Audition.StereoPanner" id="clipPan" name="StereoPanner" powered="true">
            <parameter index="0" name="聲像" parameterValue="0"/>
          </component>
          <fadeIn crossFadeLinkType="linkedAsymmetric" endPoint="0" shape="19" startPoint="0" type="log"/>
          <fadeOut crossFadeLinkType="linkedAsymmetric" endPoint="6779" shape="18" startPoint="6451" type="log"/>
          <clipStretch adaptiveWindowSize="37" pitchAdjustment="0" preserveFormants="true" stretchMode="realtime" stretchQuality="high" stretchRatio="0.5" stretchType="solo" transientSensitivity="40"/>
          <editParameter parameterIndex="0" slotIndex="4294967281"/>
          <editParameter parameterIndex="0" slotIndex="4294967280"/>
          <channelMap>
            <channel index="0" sourceIndex="0"/>
            <channel index="1" sourceIndex="1"/>
          </channelMap>
        </audioClip>
        <audioClip clipAutoCrossfade="true" crossFadeHeadClipID="8" crossFadeTailClipID="-1" endPoint="68847" fileID="0" hue="-1" id="9" lockedInTime="false" looped="false" name="woosh_edit" offline="false" select="true" sourceInPoint="0" sourceOutPoint="6779" startPoint="62068" zOrder="32">
          <component componentGuid="e4ab1e7e-88b3-4a1a-9bf0-94bf946b0d3e" componentID="Audition.Fader" id="clipGain" name="volume" powered="true">
            <parameter index="0" name="volume" parameterValue="1"/>
            <parameter index="1" name="static gain" parameterValue="1"/>
          </component>
          <component componentGuid="242d3fe5-6bb8-492e-aa4b-f0bfd1f64333" componentID="Audition.Mute" id="clipMute" name="Mute" powered="true">
            <parameter index="0" parameterValue="0"/>
            <parameter index="1" name="mute" parameterValue="0"/>
          </component>
          <component componentGuid="58c61662-d84b-42ac-933c-77910fbf8f20" componentID="Audition.StereoPanner" id="clipPan" name="StereoPanner" powered="true">
            <parameter index="0" name="聲像" parameterValue="0"/>
          </component>
          <fadeIn crossFadeLinkType="linkedAsymmetric" endPoint="328" shape="19" startPoint="0" type="log"/>
          <fadeOut crossFadeLinkType="linkedAsymmetric" endPoint="6779" shape="19" startPoint="6779" type="log"/>
          <clipStretch adaptiveWindowSize="37" pitchAdjustment="0" preserveFormants="true" stretchMode="realtime" stretchQuality="high" stretchRatio="0.5" stretchType="solo" transientSensitivity="40"/>
          <editParameter parameterIndex="0" slotIndex="4294967281"/>
          <editParameter parameterIndex="0" slotIndex="4294967280"/>
          <channelMap>
            <channel index="0" sourceIndex="0"/>
            <channel index="1" sourceIndex="1"/>
          </channelMap>
        </audioClip>
        <audioClip clipAutoCrossfade="true" crossFadeHeadClipID="-1" crossFadeTailClipID="-1" endPoint="75626" fileID="0" hue="-1" id="10" lockedInTime="false" looped="false" name="woosh_edit" offline="false" select="true" sourceInPoint="0" sourceOutPoint="6779" startPoint="68847" zOrder="32">
          <component componentGuid="094c1a6e-8f85-4b92-9502-bb87dab89f8e" componentID="Audition.Fader" id="clipGain" name="volume" powered="true">
            <parameter index="0" name="volume" parameterValue="1"/>
            <parameter index="1" name="static gain" parameterValue="1"/>
          </component>
          <component componentGuid="47007e1f-2c50-4006-88c7-7fa7866f80e9" componentID="Audition.Mute" id="clipMute" name="Mute" powered="true">
            <parameter index="0" parameterValue="0"/>
            <parameter index="1" name="mute" parameterValue="0"/>
          </component>
          <component componentGuid="b3e4a915-16ea-43db-88ef-e9dc247a5d33" componentID="Audition.StereoPanner" id="clipPan" name="StereoPanner" powered="true">
            <parameter index="0" name="聲像" parameterValue="0"/>
          </component>
          <fadeIn crossFadeLinkType="linkedAsymmetric" endPoint="0" shape="19" startPoint="0" type="log"/>
          <fadeOut crossFadeLinkType="linkedAsymmetric" endPoint="6779" shape="19" startPoint="6779" type="log"/>
          <clipStretch adaptiveWindowSize="37" pitchAdjustment="0" preserveFormants="true" stretchMode="realtime" stretchQuality="high" stretchRatio="0.5" stretchType="solo" transientSensitivity="40"/>
          <editParameter parameterIndex="0" slotIndex="4294967281"/>
          <editParameter parameterIndex="0" slotIndex="4294967280"/>
          <channelMap>
            <channel index="0" sourceIndex="0"/>
            <channel index="1" sourceIndex="1"/>
          </channelMap>
        </audioClip>
        <audioClip clipAutoCrossfade="true" crossFadeHeadClipID="-1" crossFadeTailClipID="12" endPoint="82405" fileID="0" hue="-1" id="11" lockedInTime="false" looped="false" name="woosh_edit" offline="false" select="true" sourceInPoint="0" sourceOutPoint="6779" startPoint="75626" zOrder="32">
          <component componentGuid="8da316e4-8b5d-45ff-a681-fb1daba4fb32" componentID="Audition.Fader" id="clipGain" name="volume" powered="true">
            <parameter index="0" name="volume" parameterValue="1"/>
            <parameter index="1" name="static gain" parameterValue="1"/>
          </component>
          <component componentGuid="abf92397-e41b-42ac-88f2-91256fc60f29" componentID="Audition.Mute" id="clipMute" name="Mute" powered="true">
            <parameter index="0" parameterValue="0"/>
            <parameter index="1" name="mute" parameterValue="0"/>
          </component>
          <component componentGuid="e705a14c-3d34-4274-9a83-64f11b2a32e3" componentID="Audition.StereoPanner" id="clipPan" name="StereoPanner" powered="true">
            <parameter index="0" name="聲像" parameterValue="0"/>
          </component>
          <fadeIn crossFadeLinkType="linkedAsymmetric" endPoint="0" shape="19" startPoint="0" type="log"/>
          <fadeOut crossFadeLinkType="linkedAsymmetric" endPoint="6779" shape="18" startPoint="6682" type="log"/>
          <clipStretch adaptiveWindowSize="37" pitchAdjustment="0" preserveFormants="true" stretchMode="realtime" stretchQuality="high" stretchRatio="0.5" stretchType="solo" transientSensitivity="40"/>
          <editParameter parameterIndex="0" slotIndex="4294967281"/>
          <editParameter parameterIndex="0" slotIndex="4294967280"/>
          <channelMap>
            <channel index="0" sourceIndex="0"/>
            <channel index="1" sourceIndex="1"/>
          </channelMap>
        </audioClip>
        <audioClip clipAutoCrossfade="true" crossFadeHeadClipID="11" crossFadeTailClipID="13" endPoint="89087" fileID="0" hue="-1" id="12" lockedInTime="false" looped="false" name="woosh_edit" offline="false" select="true" sourceInPoint="0" sourceOutPoint="6779" startPoint="82308" zOrder="37">
          <component componentGuid="1ba43ad1-b4b5-4935-8326-61d0bdd25bd9" componentID="Audition.Fader" id="clipGain" name="volume" powered="true">
            <parameter index="0" name="volume" parameterValue="1"/>
            <parameter index="1" name="static gain" parameterValue="1"/>
          </component>
          <component componentGuid="7073b0a7-15a9-4e4f-ac96-06680b732116" componentID="Audition.Mute" id="clipMute" name="Mute" powered="true">
            <parameter index="0" parameterValue="0"/>
            <parameter index="1" name="mute" parameterValue="0"/>
          </component>
          <component componentGuid="73071bca-6bab-4281-8032-35e7da399733" componentID="Audition.StereoPanner" id="clipPan" name="StereoPanner" powered="true">
            <parameter index="0" name="聲像" parameterValue="0"/>
          </component>
          <fadeIn crossFadeLinkType="linkedAsymmetric" endPoint="97" shape="19" startPoint="0" type="log"/>
          <fadeOut crossFadeLinkType="linkedAsymmetric" endPoint="6779" shape="18" startPoint="6451" type="log"/>
          <clipStretch adaptiveWindowSize="37" pitchAdjustment="0" preserveFormants="true" stretchMode="realtime" stretchQuality="high" stretchRatio="0.5" stretchType="solo" transientSensitivity="40"/>
          <editParameter parameterIndex="0" slotIndex="4294967281"/>
          <editParameter parameterIndex="0" slotIndex="4294967280"/>
          <channelMap>
            <channel index="0" sourceIndex="0"/>
            <channel index="1" sourceIndex="1"/>
          </channelMap>
        </audioClip>
        <audioClip clipAutoCrossfade="true" crossFadeHeadClipID="12" crossFadeTailClipID="-1" endPoint="95538" fileID="0" hue="-1" id="13" lockedInTime="false" looped="false" name="woosh_edit" offline="false" select="true" sourceInPoint="0" sourceOutPoint="6779" startPoint="88759" zOrder="37">
          <component componentGuid="ab1c2901-e24d-4969-ac75-01d36d3ae12b" componentID="Audition.Fader" id="clipGain" name="volume" powered="true">
            <parameter index="0" name="volume" parameterValue="1"/>
            <parameter index="1" name="static gain" parameterValue="1"/>
          </component>
          <component componentGuid="ed1b3430-c099-44ac-927a-b8faa04fd292" componentID="Audition.Mute" id="clipMute" name="Mute" powered="true">
            <parameter index="0" parameterValue="0"/>
            <parameter index="1" name="mute" parameterValue="0"/>
          </component>
          <component componentGuid="1f09dfbe-abce-4d37-9903-2a599b4ac984" componentID="Audition.StereoPanner" id="clipPan" name="StereoPanner" powered="true">
            <parameter index="0" name="聲像" parameterValue="0"/>
          </component>
          <fadeIn crossFadeLinkType="linkedAsymmetric" endPoint="328" shape="19" startPoint="0" type="log"/>
          <fadeOut crossFadeLinkType="linkedAsymmetric" endPoint="6779" shape="0" startPoint="6779" type="cosine"/>
          <clipStretch adaptiveWindowSize="37" pitchAdjustment="0" preserveFormants="true" stretchMode="realtime" stretchQuality="high" stretchRatio="0.5" stretchType="solo" transientSensitivity="40"/>
          <editParameter parameterIndex="0" slotIndex="4294967281"/>
          <editParameter parameterIndex="0" slotIndex="4294967280"/>
          <channelMap>
            <channel index="0" sourceIndex="0"/>
            <channel index="1" sourceIndex="1"/>
          </channelMap>
        </audioClip>
        <audioClip clipAutoCrossfade="true" crossFadeHeadClipID="-1" crossFadeTailClipID="-1" endPoint="102317" fileID="0" hue="-1" id="14" lockedInTime="false" looped="false" name="woosh_edit" offline="false" select="true" sourceInPoint="0" sourceOutPoint="6779" startPoint="95538" zOrder="37">
          <component componentGuid="b2cda697-7161-4f6d-966b-520d59a56bb5" componentID="Audition.Fader" id="clipGain" name="volume" powered="true">
            <parameter index="0" name="volume" parameterValue="1"/>
            <parameter index="1" name="static gain" parameterValue="1"/>
          </component>
          <component componentGuid="4eb247af-bca9-4908-8269-5563c0b70117" componentID="Audition.Mute" id="clipMute" name="Mute" powered="true">
            <parameter index="0" parameterValue="0"/>
            <parameter index="1" name="mute" parameterValue="0"/>
          </component>
          <component componentGuid="4ff1686f-b307-4dba-9f74-26a234603f36" componentID="Audition.StereoPanner" id="clipPan" name="StereoPanner" powered="true">
            <parameter index="0" name="聲像" parameterValue="0"/>
          </component>
          <fadeIn crossFadeLinkType="linkedAsymmetric" endPoint="0" shape="0" startPoint="0" type="cosine"/>
          <fadeOut crossFadeLinkType="linkedAsymmetric" endPoint="6779" shape="0" startPoint="6779" type="cosine"/>
          <clipStretch adaptiveWindowSize="37" pitchAdjustment="0" preserveFormants="true" stretchMode="realtime" stretchQuality="high" stretchRatio="0.5" stretchType="solo" transientSensitivity="40"/>
          <editParameter parameterIndex="0" slotIndex="4294967281"/>
          <editParameter parameterIndex="0" slotIndex="4294967280"/>
          <channelMap>
            <channel index="0" sourceIndex="0"/>
            <channel index="1" sourceIndex="1"/>
          </channelMap>
        </audioClip>
        <audioClip clipAutoCrossfade="true" crossFadeHeadClipID="-1" crossFadeTailClipID="-1" endPoint="109096" fileID="0" hue="-1" id="15" lockedInTime="false" looped="false" name="woosh_edit" offline="false" select="true" sourceInPoint="0" sourceOutPoint="6779" startPoint="102317" zOrder="37">
          <component componentGuid="7f2fd71c-ca3d-4d3e-9cad-cdd68c07b9ef" componentID="Audition.Fader" id="clipGain" name="volume" powered="true">
            <parameter index="0" name="volume" parameterValue="1"/>
            <parameter index="1" name="static gain" parameterValue="1"/>
          </component>
          <component componentGuid="bc457d5e-075d-4352-9fa4-4d3bc95c8374" componentID="Audition.Mute" id="clipMute" name="Mute" powered="true">
            <parameter index="0" parameterValue="0"/>
            <parameter index="1" name="mute" parameterValue="0"/>
          </component>
          <component componentGuid="9112acb3-6ef5-4572-bbdd-252a304b20fd" componentID="Audition.StereoPanner" id="clipPan" name="StereoPanner" powered="true">
            <parameter index="0" name="聲像" parameterValue="0"/>
          </component>
          <fadeIn crossFadeLinkType="linkedAsymmetric" endPoint="0" shape="0" startPoint="0" type="cosine"/>
          <fadeOut crossFadeLinkType="linkedAsymmetric" endPoint="6779" shape="0" startPoint="6779" type="cosine"/>
          <clipStretch adaptiveWindowSize="37" pitchAdjustment="0" preserveFormants="true" stretchMode="realtime" stretchQuality="high" stretchRatio="0.5" stretchType="solo" transientSensitivity="40"/>
          <editParameter parameterIndex="0" slotIndex="4294967281"/>
          <editParameter parameterIndex="0" slotIndex="4294967280"/>
          <channelMap>
            <channel index="0" sourceIndex="0"/>
            <channel index="1" sourceIndex="1"/>
          </channelMap>
        </audioClip>
      </audioTrack>
      <audioTrack automationLaneOpenState="false" id="10003" index="3" select="true" visible="true">
        <trackParameters trackHeight="172" trackHue="261.9632434844970703" trackMinimized="false">
          <name>軌道 3</name>
        </trackParameters>
        <trackAudioParameters audioChannelType="stereo" automationMode="1" monitoring="false" recordArmed="false" solo="false" soloSafe="false">
          <trackOutput outputID="10000" type="trackID"/>
          <trackInput inputID="1"/>
          <component componentGuid="435660fd-be66-4ee8-a216-7fb16433bff6" componentID="Audition.Fader" id="trackFader" name="volume" powered="true">
            <parameter index="0" name="volume" parameterValue="1"/>
            <parameter index="1" name="static gain" parameterValue="1"/>
          </component>
          <component componentGuid="b23a7a26-27db-40bc-811d-3ad367308aee" componentID="Audition.Mute" id="trackMute" name="Mute" powered="true">
            <parameter index="0" parameterValue="0"/>
            <parameter index="1" name="mute" parameterValue="0"/>
          </component>
          <component componentGuid="79cc0c4c-d2f7-4494-be33-7c7bfafdae23" componentID="Audition.StereoPanner" id="trackPan" name="StereoPanner" powered="true">
            <parameter index="0" name="聲像" parameterValue="0"/>
          </component>
          <component componentGuid="9c65aabd-9a79-4afa-bec3-c928188afe2f" componentID="Audition.EQ" id="trackEQ" name="EQ" powered="false">
            <parameter index="0" name="下限頻率" parameterValue="0.0009079"/>
            <parameter index="1" name="下限增益" parameterValue="0.5"/>
            <parameter index="2" name="上限頻率" parameterValue="0.8161598"/>
            <parameter index="3" name="上限頻率增益" parameterValue="0.5"/>
            <parameter index="4" name="EQ 頻段 1 中置頻率" parameterValue="0.0013618"/>
            <parameter index="5" name="EQ 頻段 1 Q" parameterValue="0.0002"/>
            <parameter index="6" name="EQ 頻段 1 增益" parameterValue="0.5"/>
            <parameter index="7" name="EQ 頻段 1 啟用" parameterValue="1"/>
            <parameter index="8" name="EQ 頻段 2 中置頻率" parameterValue="0.0081707"/>
            <parameter index="9" name="EQ 頻段 2 Q" parameterValue="0.0002"/>
            <parameter index="10" name="EQ 頻段 2 增益" parameterValue="0.5"/>
            <parameter index="11" name="EQ 頻段 2 啟用" parameterValue="1"/>
            <parameter index="12" name="EQ 頻段 3 中置頻率" parameterValue="0.0354063"/>
            <parameter index="13" name="EQ 頻段 3 Q" parameterValue="0.0002"/>
            <parameter index="14" name="EQ 頻段 3 增益" parameterValue="0.5"/>
            <parameter index="15" name="EQ 頻段 3 啟用" parameterValue="1"/>
            <parameter index="16" name="EQ 頻段 4 中置頻率" parameterValue="0.1443486"/>
            <parameter index="17" name="EQ 頻段 4 Q" parameterValue="0.0002"/>
            <parameter index="18" name="EQ 頻段 4 增益" parameterValue="0.5"/>
            <parameter index="19" name="EQ 頻段 4 啟用" parameterValue="1"/>
            <parameter index="20" name="EQ 頻段 5 中置頻率" parameterValue="0.580118"/>
            <parameter index="21" name="EQ 頻段 5 Q" parameterValue="0.0002"/>
            <parameter index="22" name="EQ 頻段 5 增益" parameterValue="0.5"/>
            <parameter index="23" name="EQ 頻段 5 啟用" parameterValue="1"/>
            <parameter index="24" name="主控增益" parameterValue="0.6666667"/>
            <parameter index="25" name="恒定 Q" parameterValue="1"/>
            <parameter index="26" name="下限濾鏡順序" parameterValue="0"/>
            <parameter index="27" name="上限頻率濾鏡順序" parameterValue="0"/>
            <parameter index="28" name="超靜音模式" parameterValue="0"/>
            <parameter index="29" name="下限啟用" parameterValue="1"/>
            <parameter index="30" name="上限頻率啟用" parameterValue="1"/>
            <parameter index="31" name="原始取樣速率" parameterValue="0.2296875"/>
            <parameter index="32" name="EQ 頻段 1 頻帶寬" parameterValue="0.0025"/>
            <parameter index="33" name="EQ 頻段 2 頻段寬度" parameterValue="0.01"/>
            <parameter index="34" name="EQ 頻段 3 頻段寬度" parameterValue="0.04"/>
            <parameter index="35" name="EQ 頻段 4 頻段寬度" parameterValue="0.16"/>
            <parameter index="36" name="EQ 頻段 5 頻段寬度" parameterValue="0.64"/>
            <parameter index="37" name="高通濾波啟用" parameterValue="0"/>
            <parameter index="38" name="高通切除頻率" parameterValue="0"/>
            <parameter index="39" name="高通斜率" parameterValue="0.4"/>
            <parameter index="40" name="低通濾波啟用" parameterValue="0"/>
            <parameter index="41" name="低通切除頻率" parameterValue="0.906945"/>
            <parameter index="42" name="低通斜率" parameterValue="0.4"/>
            <parameter index="43" name="不使用" parameterValue="0"/>
            <parameter index="44" name="下限圖示範圍" parameterValue="1"/>
          </component>
        </trackAudioParameters>
        <editParameter parameterIndex="0" slotIndex="4294967280"/>
        <sendList>
          <sendSlot preFader="false" sendOutputID="0" slotIndex="0">
            <component componentGuid="9fda0aaf-5927-430b-a083-b725c0e71718" id="sendComponent" powered="false">
              <parameter index="0" name="電源開/關" parameterValue="0"/>
              <parameter index="1" name="電平" parameterValue="0"/>
            </component>
            <component id="sendPan" powered="true"/>
          </sendSlot>
          <sendSlot preFader="false" sendOutputID="0" slotIndex="1">
            <component componentGuid="d0e363f4-ab65-440d-be51-38c6f38f7e23" id="sendComponent" powered="false">
              <parameter index="0" name="電源開/關" parameterValue="0"/>
              <parameter index="1" name="電平" parameterValue="0"/>
            </component>
            <component id="sendPan" powered="true"/>
          </sendSlot>
          <sendSlot preFader="false" sendOutputID="0" slotIndex="2">
            <component componentGuid="e11197d4-cdba-4e5a-bc37-ec81add95da4" id="sendComponent" powered="false">
              <parameter index="0" name="電源開/關" parameterValue="0"/>
              <parameter index="1" name="電平" parameterValue="0"/>
            </component>
            <component id="sendPan" powered="true"/>
          </sendSlot>
          <sendSlot preFader="false" sendOutputID="0" slotIndex="3">
            <component componentGuid="c577f172-1a66-401b-88a0-64b8afc5f99d" id="sendComponent" powered="false">
              <parameter index="0" name="電源開/關" parameterValue="0"/>
              <parameter index="1" name="電平" parameterValue="0"/>
            </component>
            <component id="sendPan" powered="true"/>
          </sendSlot>
          <sendSlot preFader="false" sendOutputID="0" slotIndex="4">
            <component componentGuid="1f922f89-e2be-42ff-8b15-a2c2e8e2defc" id="sendComponent" powered="false">
              <parameter index="0" name="電源開/關" parameterValue="0"/>
              <parameter index="1" name="電平" parameterValue="0"/>
            </component>
            <component id="sendPan" powered="true"/>
          </sendSlot>
          <sendSlot preFader="false" sendOutputID="0" slotIndex="5">
            <component componentGuid="fee4e9a0-a808-4c39-a402-80b3b7af43d3" id="sendComponent" powered="false">
              <parameter index="0" name="電源開/關" parameterValue="0"/>
              <parameter index="1" name="電平" parameterValue="0"/>
            </component>
            <component id="sendPan" powered="true"/>
          </sendSlot>
          <sendSlot preFader="false" sendOutputID="0" slotIndex="6">
            <component componentGuid="96413170-51fd-4798-8aa1-cdd1d65b288e" id="sendComponent" powered="false">
              <parameter index="0" name="電源開/關" parameterValue="0"/>
              <parameter index="1" name="電平" parameterValue="0"/>
            </component>
            <component id="sendPan" powered="true"/>
          </sendSlot>
          <sendSlot preFader="false" sendOutputID="0" slotIndex="7">
            <component componentGuid="c6b598f1-8aed-4e97-85d2-e7678c48b643" id="sendComponent" powered="false">
              <parameter index="0" name="電源開/關" parameterValue="0"/>
              <parameter index="1" name="電平" parameterValue="0"/>
            </component>
            <component id="sendPan" powered="true"/>
          </sendSlot>
          <sendSlot preFader="false" sendOutputID="0" slotIndex="8">
            <component componentGuid="a74efd37-0605-401f-a847-e7dd075765e8" id="sendComponent" powered="false">
              <parameter index="0" name="電源開/關" parameterValue="0"/>
              <parameter index="1" name="電平" parameterValue="0"/>
            </component>
            <component id="sendPan" powered="true"/>
          </sendSlot>
          <sendSlot preFader="false" sendOutputID="0" slotIndex="9">
            <component componentGuid="c52944fd-1289-4173-9707-2a1fac994d2b" id="sendComponent" powered="false">
              <parameter index="0" name="電源開/關" parameterValue="0"/>
              <parameter index="1" name="電平" parameterValue="0"/>
            </component>
            <component id="sendPan" powered="true"/>
          </sendSlot>
          <sendSlot preFader="false" sendOutputID="0" slotIndex="10">
            <component componentGuid="b58abff2-aa33-4d9e-a771-da86ba562067" id="sendComponent" powered="false">
              <parameter index="0" name="電源開/關" parameterValue="0"/>
              <parameter index="1" name="電平" parameterValue="0"/>
            </component>
            <component id="sendPan" powered="true"/>
          </sendSlot>
          <sendSlot preFader="false" sendOutputID="0" slotIndex="11">
            <component componentGuid="9954146e-94c3-4d60-8f14-80d4e6cbb49d" id="sendComponent" powered="false">
              <parameter index="0" name="電源開/關" parameterValue="0"/>
              <parameter index="1" name="電平" parameterValue="0"/>
            </component>
            <component id="sendPan" powered="true"/>
          </sendSlot>
          <sendSlot preFader="false" sendOutputID="0" slotIndex="12">
            <component componentGuid="7aeeaf7a-870f-463a-a0e4-2ea62833207a" id="sendComponent" powered="false">
              <parameter index="0" name="電源開/關" parameterValue="0"/>
              <parameter index="1" name="電平" parameterValue="0"/>
            </component>
            <component id="sendPan" powered="true"/>
          </sendSlot>
          <sendSlot preFader="false" sendOutputID="0" slotIndex="13">
            <component componentGuid="8ba843ca-3a4a-4b22-8d85-3401805756d2" id="sendComponent" powered="false">
              <parameter index="0" name="電源開/關" parameterValue="0"/>
              <parameter index="1" name="電平" parameterValue="0"/>
            </component>
            <component id="sendPan" powered="true"/>
          </sendSlot>
          <sendSlot preFader="false" sendOutputID="0" slotIndex="14">
            <component componentGuid="2b45f745-9ba5-470f-b7a2-8f3162ac608a" id="sendComponent" powered="false">
              <parameter index="0" name="電源開/關" parameterValue="0"/>
              <parameter index="1" name="電平" parameterValue="0"/>
            </component>
            <component id="sendPan" powered="true"/>
          </sendSlot>
          <sendSlot preFader="false" sendOutputID="0" slotIndex="15">
            <component componentGuid="05e0e8a2-d9e8-477a-a900-974bc76bc06b" id="sendComponent" powered="false">
              <parameter index="0" name="電源開/關" parameterValue="0"/>
              <parameter index="1" name="電平" parameterValue="0"/>
            </component>
            <component id="sendPan" powered="true"/>
          </sendSlot>
        </sendList>
      </audioTrack>
      <audioTrack automationLaneOpenState="false" id="10004" index="4" select="false" visible="true">
        <trackParameters trackHeight="172" trackHue="94.5830154418945313" trackMinimized="false">
          <name>軌道 4</name>
        </trackParameters>
        <trackAudioParameters audioChannelType="stereo" automationMode="1" monitoring="false" recordArmed="false" solo="false" soloSafe="false">
          <trackOutput outputID="10000" type="trackID"/>
          <trackInput inputID="1"/>
          <component componentGuid="cb27d010-d31c-4360-872e-09c179b2ea31" componentID="Audition.Fader" id="trackFader" name="volume" powered="true">
            <parameter index="0" name="volume" parameterValue="1"/>
            <parameter index="1" name="static gain" parameterValue="1"/>
          </component>
          <component componentGuid="d27781df-bd09-4be7-8413-6649b95e212d" componentID="Audition.Mute" id="trackMute" name="Mute" powered="true">
            <parameter index="0" parameterValue="0"/>
            <parameter index="1" name="mute" parameterValue="0"/>
          </component>
          <component componentGuid="771c67d5-4dc6-4148-860e-72d089831209" componentID="Audition.StereoPanner" id="trackPan" name="StereoPanner" powered="true">
            <parameter index="0" name="聲像" parameterValue="0"/>
          </component>
          <component componentGuid="53533a76-3d5a-4c47-8f82-cb5cc186fe0b" componentID="Audition.EQ" id="trackEQ" name="EQ" powered="false">
            <parameter index="0" name="下限頻率" parameterValue="0.0009079"/>
            <parameter index="1" name="下限增益" parameterValue="0.5"/>
            <parameter index="2" name="上限頻率" parameterValue="0.8161598"/>
            <parameter index="3" name="上限頻率增益" parameterValue="0.5"/>
            <parameter index="4" name="EQ 頻段 1 中置頻率" parameterValue="0.0013618"/>
            <parameter index="5" name="EQ 頻段 1 Q" parameterValue="0.0002"/>
            <parameter index="6" name="EQ 頻段 1 增益" parameterValue="0.5"/>
            <parameter index="7" name="EQ 頻段 1 啟用" parameterValue="1"/>
            <parameter index="8" name="EQ 頻段 2 中置頻率" parameterValue="0.0081707"/>
            <parameter index="9" name="EQ 頻段 2 Q" parameterValue="0.0002"/>
            <parameter index="10" name="EQ 頻段 2 增益" parameterValue="0.5"/>
            <parameter index="11" name="EQ 頻段 2 啟用" parameterValue="1"/>
            <parameter index="12" name="EQ 頻段 3 中置頻率" parameterValue="0.0354063"/>
            <parameter index="13" name="EQ 頻段 3 Q" parameterValue="0.0002"/>
            <parameter index="14" name="EQ 頻段 3 增益" parameterValue="0.5"/>
            <parameter index="15" name="EQ 頻段 3 啟用" parameterValue="1"/>
            <parameter index="16" name="EQ 頻段 4 中置頻率" parameterValue="0.1443486"/>
            <parameter index="17" name="EQ 頻段 4 Q" parameterValue="0.0002"/>
            <parameter index="18" name="EQ 頻段 4 增益" parameterValue="0.5"/>
            <parameter index="19" name="EQ 頻段 4 啟用" parameterValue="1"/>
            <parameter index="20" name="EQ 頻段 5 中置頻率" parameterValue="0.580118"/>
            <parameter index="21" name="EQ 頻段 5 Q" parameterValue="0.0002"/>
            <parameter index="22" name="EQ 頻段 5 增益" parameterValue="0.5"/>
            <parameter index="23" name="EQ 頻段 5 啟用" parameterValue="1"/>
            <parameter index="24" name="主控增益" parameterValue="0.6666667"/>
            <parameter index="25" name="恒定 Q" parameterValue="1"/>
            <parameter index="26" name="下限濾鏡順序" parameterValue="0"/>
            <parameter index="27" name="上限頻率濾鏡順序" parameterValue="0"/>
            <parameter index="28" name="超靜音模式" parameterValue="0"/>
            <parameter index="29" name="下限啟用" parameterValue="1"/>
            <parameter index="30" name="上限頻率啟用" parameterValue="1"/>
            <parameter index="31" name="原始取樣速率" parameterValue="0.2296875"/>
            <parameter index="32" name="EQ 頻段 1 頻帶寬" parameterValue="0.0025"/>
            <parameter index="33" name="EQ 頻段 2 頻段寬度" parameterValue="0.01"/>
            <parameter index="34" name="EQ 頻段 3 頻段寬度" parameterValue="0.04"/>
            <parameter index="35" name="EQ 頻段 4 頻段寬度" parameterValue="0.16"/>
            <parameter index="36" name="EQ 頻段 5 頻段寬度" parameterValue="0.64"/>
            <parameter index="37" name="高通濾波啟用" parameterValue="0"/>
            <parameter index="38" name="高通切除頻率" parameterValue="0"/>
            <parameter index="39" name="高通斜率" parameterValue="0.4"/>
            <parameter index="40" name="低通濾波啟用" parameterValue="0"/>
            <parameter index="41" name="低通切除頻率" parameterValue="0.906945"/>
            <parameter index="42" name="低通斜率" parameterValue="0.4"/>
            <parameter index="43" name="不使用" parameterValue="0"/>
            <parameter index="44" name="下限圖示範圍" parameterValue="1"/>
          </component>
        </trackAudioParameters>
        <editParameter parameterIndex="0" slotIndex="4294967280"/>
        <sendList>
          <sendSlot preFader="false" sendOutputID="0" slotIndex="0">
            <component componentGuid="d20131e1-a088-40f3-9550-8d49d3446718" id="sendComponent" powered="false">
              <parameter index="0" name="電源開/關" parameterValue="0"/>
              <parameter index="1" name="電平" parameterValue="0"/>
            </component>
            <component id="sendPan" powered="true"/>
          </sendSlot>
          <sendSlot preFader="false" sendOutputID="0" slotIndex="1">
            <component componentGuid="808f41e8-457c-41b6-95b0-6ba37c88bf46" id="sendComponent" powered="false">
              <parameter index="0" name="電源開/關" parameterValue="0"/>
              <parameter index="1" name="電平" parameterValue="0"/>
            </component>
            <component id="sendPan" powered="true"/>
          </sendSlot>
          <sendSlot preFader="false" sendOutputID="0" slotIndex="2">
            <component componentGuid="d9e9c673-0ca2-490c-a469-25dc6a57cf69" id="sendComponent" powered="false">
              <parameter index="0" name="電源開/關" parameterValue="0"/>
              <parameter index="1" name="電平" parameterValue="0"/>
            </component>
            <component id="sendPan" powered="true"/>
          </sendSlot>
          <sendSlot preFader="false" sendOutputID="0" slotIndex="3">
            <component componentGuid="7860b454-2edf-4578-ac30-27627a744d9c" id="sendComponent" powered="false">
              <parameter index="0" name="電源開/關" parameterValue="0"/>
              <parameter index="1" name="電平" parameterValue="0"/>
            </component>
            <component id="sendPan" powered="true"/>
          </sendSlot>
          <sendSlot preFader="false" sendOutputID="0" slotIndex="4">
            <component componentGuid="55c5bada-b88b-4964-a677-f0f770a17550" id="sendComponent" powered="false">
              <parameter index="0" name="電源開/關" parameterValue="0"/>
              <parameter index="1" name="電平" parameterValue="0"/>
            </component>
            <component id="sendPan" powered="true"/>
          </sendSlot>
          <sendSlot preFader="false" sendOutputID="0" slotIndex="5">
            <component componentGuid="efd41a1b-14ec-4cde-89f9-be3acc08e493" id="sendComponent" powered="false">
              <parameter index="0" name="電源開/關" parameterValue="0"/>
              <parameter index="1" name="電平" parameterValue="0"/>
            </component>
            <component id="sendPan" powered="true"/>
          </sendSlot>
          <sendSlot preFader="false" sendOutputID="0" slotIndex="6">
            <component componentGuid="7c24646c-7409-4631-aacb-71eefb730f9e" id="sendComponent" powered="false">
              <parameter index="0" name="電源開/關" parameterValue="0"/>
              <parameter index="1" name="電平" parameterValue="0"/>
            </component>
            <component id="sendPan" powered="true"/>
          </sendSlot>
          <sendSlot preFader="false" sendOutputID="0" slotIndex="7">
            <component componentGuid="51047e09-b04d-4d3b-8db1-91bf5bd7e473" id="sendComponent" powered="false">
              <parameter index="0" name="電源開/關" parameterValue="0"/>
              <parameter index="1" name="電平" parameterValue="0"/>
            </component>
            <component id="sendPan" powered="true"/>
          </sendSlot>
          <sendSlot preFader="false" sendOutputID="0" slotIndex="8">
            <component componentGuid="eef2eb00-505d-4774-84b7-1951b62f5074" id="sendComponent" powered="false">
              <parameter index="0" name="電源開/關" parameterValue="0"/>
              <parameter index="1" name="電平" parameterValue="0"/>
            </component>
            <component id="sendPan" powered="true"/>
          </sendSlot>
          <sendSlot preFader="false" sendOutputID="0" slotIndex="9">
            <component componentGuid="f1a5552b-ac75-483a-bfa7-447f3fe846df" id="sendComponent" powered="false">
              <parameter index="0" name="電源開/關" parameterValue="0"/>
              <parameter index="1" name="電平" parameterValue="0"/>
            </component>
            <component id="sendPan" powered="true"/>
          </sendSlot>
          <sendSlot preFader="false" sendOutputID="0" slotIndex="10">
            <component componentGuid="fa12f3fd-eda1-4b76-a9f4-1333b0341041" id="sendComponent" powered="false">
              <parameter index="0" name="電源開/關" parameterValue="0"/>
              <parameter index="1" name="電平" parameterValue="0"/>
            </component>
            <component id="sendPan" powered="true"/>
          </sendSlot>
          <sendSlot preFader="false" sendOutputID="0" slotIndex="11">
            <component componentGuid="18abc1a3-2719-4f1d-b830-382938f73c81" id="sendComponent" powered="false">
              <parameter index="0" name="電源開/關" parameterValue="0"/>
              <parameter index="1" name="電平" parameterValue="0"/>
            </component>
            <component id="sendPan" powered="true"/>
          </sendSlot>
          <sendSlot preFader="false" sendOutputID="0" slotIndex="12">
            <component componentGuid="67aeaff0-29bc-414b-a00c-537756eb574c" id="sendComponent" powered="false">
              <parameter index="0" name="電源開/關" parameterValue="0"/>
              <parameter index="1" name="電平" parameterValue="0"/>
            </component>
            <component id="sendPan" powered="true"/>
          </sendSlot>
          <sendSlot preFader="false" sendOutputID="0" slotIndex="13">
            <component componentGuid="425edf54-ea96-497a-a622-e9efc9bafc03" id="sendComponent" powered="false">
              <parameter index="0" name="電源開/關" parameterValue="0"/>
              <parameter index="1" name="電平" parameterValue="0"/>
            </component>
            <component id="sendPan" powered="true"/>
          </sendSlot>
          <sendSlot preFader="false" sendOutputID="0" slotIndex="14">
            <component componentGuid="79e5e0c0-6af0-458e-919a-6a431a16f44f" id="sendComponent" powered="false">
              <parameter index="0" name="電源開/關" parameterValue="0"/>
              <parameter index="1" name="電平" parameterValue="0"/>
            </component>
            <component id="sendPan" powered="true"/>
          </sendSlot>
          <sendSlot preFader="false" sendOutputID="0" slotIndex="15">
            <component componentGuid="a172d48d-c18f-4868-a9b4-5db13536a7ad" id="sendComponent" powered="false">
              <parameter index="0" name="電源開/關" parameterValue="0"/>
              <parameter index="1" name="電平" parameterValue="0"/>
            </component>
            <component id="sendPan" powered="true"/>
          </sendSlot>
        </sendList>
      </audioTrack>
      <audioTrack automationLaneOpenState="false" id="10005" index="5" select="false" visible="true">
        <trackParameters trackHeight="172" trackHue="192.6743602752685547" trackMinimized="false">
          <name>軌道 5</name>
        </trackParameters>
        <trackAudioParameters audioChannelType="stereo" automationMode="1" monitoring="false" recordArmed="false" solo="false" soloSafe="false">
          <trackOutput outputID="10000" type="trackID"/>
          <trackInput inputID="1"/>
          <component componentGuid="0a6b0558-96b0-4a60-8b24-abd0cbed1c53" componentID="Audition.Fader" id="trackFader" name="volume" powered="true">
            <parameter index="0" name="volume" parameterValue="1"/>
            <parameter index="1" name="static gain" parameterValue="1"/>
          </component>
          <component componentGuid="5797dad8-f15b-406c-970d-c05a1e19498c" componentID="Audition.Mute" id="trackMute" name="Mute" powered="true">
            <parameter index="0" parameterValue="0"/>
            <parameter index="1" name="mute" parameterValue="0"/>
          </component>
          <component componentGuid="78d1b534-0ed2-408b-b879-80cc97b6843b" componentID="Audition.StereoPanner" id="trackPan" name="StereoPanner" powered="true">
            <parameter index="0" name="聲像" parameterValue="0"/>
          </component>
          <component componentGuid="3cbfb505-86a6-40a4-9fcd-98a72dda1fe1" componentID="Audition.EQ" id="trackEQ" name="EQ" powered="false">
            <parameter index="0" name="下限頻率" parameterValue="0.0009079"/>
            <parameter index="1" name="下限增益" parameterValue="0.5"/>
            <parameter index="2" name="上限頻率" parameterValue="0.8161598"/>
            <parameter index="3" name="上限頻率增益" parameterValue="0.5"/>
            <parameter index="4" name="EQ 頻段 1 中置頻率" parameterValue="0.0013618"/>
            <parameter index="5" name="EQ 頻段 1 Q" parameterValue="0.0002"/>
            <parameter index="6" name="EQ 頻段 1 增益" parameterValue="0.5"/>
            <parameter index="7" name="EQ 頻段 1 啟用" parameterValue="1"/>
            <parameter index="8" name="EQ 頻段 2 中置頻率" parameterValue="0.0081707"/>
            <parameter index="9" name="EQ 頻段 2 Q" parameterValue="0.0002"/>
            <parameter index="10" name="EQ 頻段 2 增益" parameterValue="0.5"/>
            <parameter index="11" name="EQ 頻段 2 啟用" parameterValue="1"/>
            <parameter index="12" name="EQ 頻段 3 中置頻率" parameterValue="0.0354063"/>
            <parameter index="13" name="EQ 頻段 3 Q" parameterValue="0.0002"/>
            <parameter index="14" name="EQ 頻段 3 增益" parameterValue="0.5"/>
            <parameter index="15" name="EQ 頻段 3 啟用" parameterValue="1"/>
            <parameter index="16" name="EQ 頻段 4 中置頻率" parameterValue="0.1443486"/>
            <parameter index="17" name="EQ 頻段 4 Q" parameterValue="0.0002"/>
            <parameter index="18" name="EQ 頻段 4 增益" parameterValue="0.5"/>
            <parameter index="19" name="EQ 頻段 4 啟用" parameterValue="1"/>
            <parameter index="20" name="EQ 頻段 5 中置頻率" parameterValue="0.580118"/>
            <parameter index="21" name="EQ 頻段 5 Q" parameterValue="0.0002"/>
            <parameter index="22" name="EQ 頻段 5 增益" parameterValue="0.5"/>
            <parameter index="23" name="EQ 頻段 5 啟用" parameterValue="1"/>
            <parameter index="24" name="主控增益" parameterValue="0.6666667"/>
            <parameter index="25" name="恒定 Q" parameterValue="1"/>
            <parameter index="26" name="下限濾鏡順序" parameterValue="0"/>
            <parameter index="27" name="上限頻率濾鏡順序" parameterValue="0"/>
            <parameter index="28" name="超靜音模式" parameterValue="0"/>
            <parameter index="29" name="下限啟用" parameterValue="1"/>
            <parameter index="30" name="上限頻率啟用" parameterValue="1"/>
            <parameter index="31" name="原始取樣速率" parameterValue="0.2296875"/>
            <parameter index="32" name="EQ 頻段 1 頻帶寬" parameterValue="0.0025"/>
            <parameter index="33" name="EQ 頻段 2 頻段寬度" parameterValue="0.01"/>
            <parameter index="34" name="EQ 頻段 3 頻段寬度" parameterValue="0.04"/>
            <parameter index="35" name="EQ 頻段 4 頻段寬度" parameterValue="0.16"/>
            <parameter index="36" name="EQ 頻段 5 頻段寬度" parameterValue="0.64"/>
            <parameter index="37" name="高通濾波啟用" parameterValue="0"/>
            <parameter index="38" name="高通切除頻率" parameterValue="0"/>
            <parameter index="39" name="高通斜率" parameterValue="0.4"/>
            <parameter index="40" name="低通濾波啟用" parameterValue="0"/>
            <parameter index="41" name="低通切除頻率" parameterValue="0.906945"/>
            <parameter index="42" name="低通斜率" parameterValue="0.4"/>
            <parameter index="43" name="不使用" parameterValue="0"/>
            <parameter index="44" name="下限圖示範圍" parameterValue="1"/>
          </component>
        </trackAudioParameters>
        <editParameter parameterIndex="0" slotIndex="4294967280"/>
        <sendList>
          <sendSlot preFader="false" sendOutputID="0" slotIndex="0">
            <component componentGuid="5f571035-40cb-48c3-8237-c24b70423080" id="sendComponent" powered="false">
              <parameter index="0" name="電源開/關" parameterValue="0"/>
              <parameter index="1" name="電平" parameterValue="0"/>
            </component>
            <component id="sendPan" powered="true"/>
          </sendSlot>
          <sendSlot preFader="false" sendOutputID="0" slotIndex="1">
            <component componentGuid="205f2393-770a-49ba-b624-a63adb9ac7aa" id="sendComponent" powered="false">
              <parameter index="0" name="電源開/關" parameterValue="0"/>
              <parameter index="1" name="電平" parameterValue="0"/>
            </component>
            <component id="sendPan" powered="true"/>
          </sendSlot>
          <sendSlot preFader="false" sendOutputID="0" slotIndex="2">
            <component componentGuid="dd5f70c4-7546-4778-bd28-a7e6efe205fa" id="sendComponent" powered="false">
              <parameter index="0" name="電源開/關" parameterValue="0"/>
              <parameter index="1" name="電平" parameterValue="0"/>
            </component>
            <component id="sendPan" powered="true"/>
          </sendSlot>
          <sendSlot preFader="false" sendOutputID="0" slotIndex="3">
            <component componentGuid="6cd18bf6-cf3a-4118-b2a0-49f585365416" id="sendComponent" powered="false">
              <parameter index="0" name="電源開/關" parameterValue="0"/>
              <parameter index="1" name="電平" parameterValue="0"/>
            </component>
            <component id="sendPan" powered="true"/>
          </sendSlot>
          <sendSlot preFader="false" sendOutputID="0" slotIndex="4">
            <component componentGuid="e8e2920b-9c16-4ce5-9126-a9aad9d10d54" id="sendComponent" powered="false">
              <parameter index="0" name="電源開/關" parameterValue="0"/>
              <parameter index="1" name="電平" parameterValue="0"/>
            </component>
            <component id="sendPan" powered="true"/>
          </sendSlot>
          <sendSlot preFader="false" sendOutputID="0" slotIndex="5">
            <component componentGuid="30edc954-c0bc-4d23-97e1-4d59e9d11403" id="sendComponent" powered="false">
              <parameter index="0" name="電源開/關" parameterValue="0"/>
              <parameter index="1" name="電平" parameterValue="0"/>
            </component>
            <component id="sendPan" powered="true"/>
          </sendSlot>
          <sendSlot preFader="false" sendOutputID="0" slotIndex="6">
            <component componentGuid="0366ef14-6f81-4e14-8a0c-0ea87b79d218" id="sendComponent" powered="false">
              <parameter index="0" name="電源開/關" parameterValue="0"/>
              <parameter index="1" name="電平" parameterValue="0"/>
            </component>
            <component id="sendPan" powered="true"/>
          </sendSlot>
          <sendSlot preFader="false" sendOutputID="0" slotIndex="7">
            <component componentGuid="0078c861-2ca7-4009-a040-8c5417628ceb" id="sendComponent" powered="false">
              <parameter index="0" name="電源開/關" parameterValue="0"/>
              <parameter index="1" name="電平" parameterValue="0"/>
            </component>
            <component id="sendPan" powered="true"/>
          </sendSlot>
          <sendSlot preFader="false" sendOutputID="0" slotIndex="8">
            <component componentGuid="cb8d3900-8636-430f-9625-f5a2784248ad" id="sendComponent" powered="false">
              <parameter index="0" name="電源開/關" parameterValue="0"/>
              <parameter index="1" name="電平" parameterValue="0"/>
            </component>
            <component id="sendPan" powered="true"/>
          </sendSlot>
          <sendSlot preFader="false" sendOutputID="0" slotIndex="9">
            <component componentGuid="4e7d63f3-2158-4cce-a7a3-a202d6f3f2a4" id="sendComponent" powered="false">
              <parameter index="0" name="電源開/關" parameterValue="0"/>
              <parameter index="1" name="電平" parameterValue="0"/>
            </component>
            <component id="sendPan" powered="true"/>
          </sendSlot>
          <sendSlot preFader="false" sendOutputID="0" slotIndex="10">
            <component componentGuid="bfc3aeac-7316-4482-988d-cdda77380e05" id="sendComponent" powered="false">
              <parameter index="0" name="電源開/關" parameterValue="0"/>
              <parameter index="1" name="電平" parameterValue="0"/>
            </component>
            <component id="sendPan" powered="true"/>
          </sendSlot>
          <sendSlot preFader="false" sendOutputID="0" slotIndex="11">
            <component componentGuid="0294f32e-ef03-4530-8ac5-018807b2298e" id="sendComponent" powered="false">
              <parameter index="0" name="電源開/關" parameterValue="0"/>
              <parameter index="1" name="電平" parameterValue="0"/>
            </component>
            <component id="sendPan" powered="true"/>
          </sendSlot>
          <sendSlot preFader="false" sendOutputID="0" slotIndex="12">
            <component componentGuid="73973bac-a0f9-4823-9eed-391f42f5a050" id="sendComponent" powered="false">
              <parameter index="0" name="電源開/關" parameterValue="0"/>
              <parameter index="1" name="電平" parameterValue="0"/>
            </component>
            <component id="sendPan" powered="true"/>
          </sendSlot>
          <sendSlot preFader="false" sendOutputID="0" slotIndex="13">
            <component componentGuid="24435b93-1a6b-4794-b6a0-188204845fd5" id="sendComponent" powered="false">
              <parameter index="0" name="電源開/關" parameterValue="0"/>
              <parameter index="1" name="電平" parameterValue="0"/>
            </component>
            <component id="sendPan" powered="true"/>
          </sendSlot>
          <sendSlot preFader="false" sendOutputID="0" slotIndex="14">
            <component componentGuid="6b3c7a3d-285d-47cd-94c0-9bf482ae4d69" id="sendComponent" powered="false">
              <parameter index="0" name="電源開/關" parameterValue="0"/>
              <parameter index="1" name="電平" parameterValue="0"/>
            </component>
            <component id="sendPan" powered="true"/>
          </sendSlot>
          <sendSlot preFader="false" sendOutputID="0" slotIndex="15">
            <component componentGuid="8f1fedc9-ca47-42ea-861e-7e466dc3d0b2" id="sendComponent" powered="false">
              <parameter index="0" name="電源開/關" parameterValue="0"/>
              <parameter index="1" name="電平" parameterValue="0"/>
            </component>
            <component id="sendPan" powered="true"/>
          </sendSlot>
        </sendList>
      </audioTrack>
      <audioTrack automationLaneOpenState="false" id="10006" index="6" select="false" visible="true">
        <trackParameters trackHeight="172" trackHue="352.5858163833618164" trackMinimized="false">
          <name>軌道 6</name>
        </trackParameters>
        <trackAudioParameters audioChannelType="stereo" automationMode="1" monitoring="false" recordArmed="false" solo="false" soloSafe="false">
          <trackOutput outputID="10000" type="trackID"/>
          <trackInput inputID="1"/>
          <component componentGuid="dc0af9af-fff6-4ece-8c79-d19cdf6adc0a" componentID="Audition.Fader" id="trackFader" name="volume" powered="true">
            <parameter index="0" name="volume" parameterValue="1"/>
            <parameter index="1" name="static gain" parameterValue="1"/>
          </component>
          <component componentGuid="f8fbcc87-c865-4d1f-afa7-af1b877daee8" componentID="Audition.Mute" id="trackMute" name="Mute" powered="true">
            <parameter index="0" parameterValue="0"/>
            <parameter index="1" name="mute" parameterValue="0"/>
          </component>
          <component componentGuid="2358d79f-cb9f-493c-9ef1-3fdcf08a2942" componentID="Audition.StereoPanner" id="trackPan" name="StereoPanner" powered="true">
            <parameter index="0" name="聲像" parameterValue="0"/>
          </component>
          <component componentGuid="5fe8f5ce-3cb4-4df7-b3bf-bb63d676c523" componentID="Audition.EQ" id="trackEQ" name="EQ" powered="false">
            <parameter index="0" name="下限頻率" parameterValue="0.0009079"/>
            <parameter index="1" name="下限增益" parameterValue="0.5"/>
            <parameter index="2" name="上限頻率" parameterValue="0.8161598"/>
            <parameter index="3" name="上限頻率增益" parameterValue="0.5"/>
            <parameter index="4" name="EQ 頻段 1 中置頻率" parameterValue="0.0013618"/>
            <parameter index="5" name="EQ 頻段 1 Q" parameterValue="0.0002"/>
            <parameter index="6" name="EQ 頻段 1 增益" parameterValue="0.5"/>
            <parameter index="7" name="EQ 頻段 1 啟用" parameterValue="1"/>
            <parameter index="8" name="EQ 頻段 2 中置頻率" parameterValue="0.0081707"/>
            <parameter index="9" name="EQ 頻段 2 Q" parameterValue="0.0002"/>
            <parameter index="10" name="EQ 頻段 2 增益" parameterValue="0.5"/>
            <parameter index="11" name="EQ 頻段 2 啟用" parameterValue="1"/>
            <parameter index="12" name="EQ 頻段 3 中置頻率" parameterValue="0.0354063"/>
            <parameter index="13" name="EQ 頻段 3 Q" parameterValue="0.0002"/>
            <parameter index="14" name="EQ 頻段 3 增益" parameterValue="0.5"/>
            <parameter index="15" name="EQ 頻段 3 啟用" parameterValue="1"/>
            <parameter index="16" name="EQ 頻段 4 中置頻率" parameterValue="0.1443486"/>
            <parameter index="17" name="EQ 頻段 4 Q" parameterValue="0.0002"/>
            <parameter index="18" name="EQ 頻段 4 增益" parameterValue="0.5"/>
            <parameter index="19" name="EQ 頻段 4 啟用" parameterValue="1"/>
            <parameter index="20" name="EQ 頻段 5 中置頻率" parameterValue="0.580118"/>
            <parameter index="21" name="EQ 頻段 5 Q" parameterValue="0.0002"/>
            <parameter index="22" name="EQ 頻段 5 增益" parameterValue="0.5"/>
            <parameter index="23" name="EQ 頻段 5 啟用" parameterValue="1"/>
            <parameter index="24" name="主控增益" parameterValue="0.6666667"/>
            <parameter index="25" name="恒定 Q" parameterValue="1"/>
            <parameter index="26" name="下限濾鏡順序" parameterValue="0"/>
            <parameter index="27" name="上限頻率濾鏡順序" parameterValue="0"/>
            <parameter index="28" name="超靜音模式" parameterValue="0"/>
            <parameter index="29" name="下限啟用" parameterValue="1"/>
            <parameter index="30" name="上限頻率啟用" parameterValue="1"/>
            <parameter index="31" name="原始取樣速率" parameterValue="0.2296875"/>
            <parameter index="32" name="EQ 頻段 1 頻帶寬" parameterValue="0.0025"/>
            <parameter index="33" name="EQ 頻段 2 頻段寬度" parameterValue="0.01"/>
            <parameter index="34" name="EQ 頻段 3 頻段寬度" parameterValue="0.04"/>
            <parameter index="35" name="EQ 頻段 4 頻段寬度" parameterValue="0.16"/>
            <parameter index="36" name="EQ 頻段 5 頻段寬度" parameterValue="0.64"/>
            <parameter index="37" name="高通濾波啟用" parameterValue="0"/>
            <parameter index="38" name="高通切除頻率" parameterValue="0"/>
            <parameter index="39" name="高通斜率" parameterValue="0.4"/>
            <parameter index="40" name="低通濾波啟用" parameterValue="0"/>
            <parameter index="41" name="低通切除頻率" parameterValue="0.906945"/>
            <parameter index="42" name="低通斜率" parameterValue="0.4"/>
            <parameter index="43" name="不使用" parameterValue="0"/>
            <parameter index="44" name="下限圖示範圍" parameterValue="1"/>
          </component>
        </trackAudioParameters>
        <editParameter parameterIndex="0" slotIndex="4294967280"/>
        <sendList>
          <sendSlot preFader="false" sendOutputID="0" slotIndex="0">
            <component componentGuid="525ffc32-1d0f-4151-9b87-b6d350cb58b5" id="sendComponent" powered="false">
              <parameter index="0" name="電源開/關" parameterValue="0"/>
              <parameter index="1" name="電平" parameterValue="0"/>
            </component>
            <component id="sendPan" powered="true"/>
          </sendSlot>
          <sendSlot preFader="false" sendOutputID="0" slotIndex="1">
            <component componentGuid="047b9db0-694d-4781-aada-6975d27eb1d7" id="sendComponent" powered="false">
              <parameter index="0" name="電源開/關" parameterValue="0"/>
              <parameter index="1" name="電平" parameterValue="0"/>
            </component>
            <component id="sendPan" powered="true"/>
          </sendSlot>
          <sendSlot preFader="false" sendOutputID="0" slotIndex="2">
            <component componentGuid="2b04e185-aee1-46cf-bd35-3d446f03c3c9" id="sendComponent" powered="false">
              <parameter index="0" name="電源開/關" parameterValue="0"/>
              <parameter index="1" name="電平" parameterValue="0"/>
            </component>
            <component id="sendPan" powered="true"/>
          </sendSlot>
          <sendSlot preFader="false" sendOutputID="0" slotIndex="3">
            <component componentGuid="a1073f61-092a-44ea-b345-e5d5c1d31bcf" id="sendComponent" powered="false">
              <parameter index="0" name="電源開/關" parameterValue="0"/>
              <parameter index="1" name="電平" parameterValue="0"/>
            </component>
            <component id="sendPan" powered="true"/>
          </sendSlot>
          <sendSlot preFader="false" sendOutputID="0" slotIndex="4">
            <component componentGuid="502379c1-cc2a-41f8-b047-d3851d23b47b" id="sendComponent" powered="false">
              <parameter index="0" name="電源開/關" parameterValue="0"/>
              <parameter index="1" name="電平" parameterValue="0"/>
            </component>
            <component id="sendPan" powered="true"/>
          </sendSlot>
          <sendSlot preFader="false" sendOutputID="0" slotIndex="5">
            <component componentGuid="f58f23bf-d25f-45e7-a56d-6ea7040563e1" id="sendComponent" powered="false">
              <parameter index="0" name="電源開/關" parameterValue="0"/>
              <parameter index="1" name="電平" parameterValue="0"/>
            </component>
            <component id="sendPan" powered="true"/>
          </sendSlot>
          <sendSlot preFader="false" sendOutputID="0" slotIndex="6">
            <component componentGuid="d39a5010-dec6-41bb-a940-1cdd1789413b" id="sendComponent" powered="false">
              <parameter index="0" name="電源開/關" parameterValue="0"/>
              <parameter index="1" name="電平" parameterValue="0"/>
            </component>
            <component id="sendPan" powered="true"/>
          </sendSlot>
          <sendSlot preFader="false" sendOutputID="0" slotIndex="7">
            <component componentGuid="a5b05af7-23ec-4376-b8fd-3a4227c28d62" id="sendComponent" powered="false">
              <parameter index="0" name="電源開/關" parameterValue="0"/>
              <parameter index="1" name="電平" parameterValue="0"/>
            </component>
            <component id="sendPan" powered="true"/>
          </sendSlot>
          <sendSlot preFader="false" sendOutputID="0" slotIndex="8">
            <component componentGuid="736f4746-10d8-42aa-910b-d4365b305fce" id="sendComponent" powered="false">
              <parameter index="0" name="電源開/關" parameterValue="0"/>
              <parameter index="1" name="電平" parameterValue="0"/>
            </component>
            <component id="sendPan" powered="true"/>
          </sendSlot>
          <sendSlot preFader="false" sendOutputID="0" slotIndex="9">
            <component componentGuid="13690ef7-2c79-4164-85f4-d857865c6fae" id="sendComponent" powered="false">
              <parameter index="0" name="電源開/關" parameterValue="0"/>
              <parameter index="1" name="電平" parameterValue="0"/>
            </component>
            <component id="sendPan" powered="true"/>
          </sendSlot>
          <sendSlot preFader="false" sendOutputID="0" slotIndex="10">
            <component componentGuid="040a7ce9-22db-46f7-b95f-25d72fc96587" id="sendComponent" powered="false">
              <parameter index="0" name="電源開/關" parameterValue="0"/>
              <parameter index="1" name="電平" parameterValue="0"/>
            </component>
            <component id="sendPan" powered="true"/>
          </sendSlot>
          <sendSlot preFader="false" sendOutputID="0" slotIndex="11">
            <component componentGuid="dcc6974d-3f1c-4f8c-a454-aecdddf6c0f0" id="sendComponent" powered="false">
              <parameter index="0" name="電源開/關" parameterValue="0"/>
              <parameter index="1" name="電平" parameterValue="0"/>
            </component>
            <component id="sendPan" powered="true"/>
          </sendSlot>
          <sendSlot preFader="false" sendOutputID="0" slotIndex="12">
            <component componentGuid="8479904b-106c-45b0-b372-c973cee3f8b9" id="sendComponent" powered="false">
              <parameter index="0" name="電源開/關" parameterValue="0"/>
              <parameter index="1" name="電平" parameterValue="0"/>
            </component>
            <component id="sendPan" powered="true"/>
          </sendSlot>
          <sendSlot preFader="false" sendOutputID="0" slotIndex="13">
            <component componentGuid="04396087-6ccc-4ab1-a81d-a9f4610851db" id="sendComponent" powered="false">
              <parameter index="0" name="電源開/關" parameterValue="0"/>
              <parameter index="1" name="電平" parameterValue="0"/>
            </component>
            <component id="sendPan" powered="true"/>
          </sendSlot>
          <sendSlot preFader="false" sendOutputID="0" slotIndex="14">
            <component componentGuid="86197207-6044-4da2-91af-7bb6ebf85665" id="sendComponent" powered="false">
              <parameter index="0" name="電源開/關" parameterValue="0"/>
              <parameter index="1" name="電平" parameterValue="0"/>
            </component>
            <component id="sendPan" powered="true"/>
          </sendSlot>
          <sendSlot preFader="false" sendOutputID="0" slotIndex="15">
            <component componentGuid="06295b50-69a2-4d46-8f65-241a29047ca7" id="sendComponent" powered="false">
              <parameter index="0" name="電源開/關" parameterValue="0"/>
              <parameter index="1" name="電平" parameterValue="0"/>
            </component>
            <component id="sendPan" powered="true"/>
          </sendSlot>
        </sendList>
      </audioTrack>
      <masterTrack automationLaneOpenState="false" id="10000" index="7" select="false" visible="true">
        <trackParameters trackHeight="172" trackHue="-1" trackMinimized="false">
          <name>主</name>
        </trackParameters>
        <trackAudioParameters audioChannelType="stereo" automationMode="1" monitoring="false" recordArmed="false" solo="false" soloSafe="true">
          <trackOutput outputID="1" type="hardwareOutput"/>
          <trackInput inputID="-1"/>
          <component componentGuid="512dece1-4be0-4961-bc40-82c22e1b1b96" componentID="Audition.Fader" id="trackFader" name="volume" powered="true">
            <parameter index="0" name="volume" parameterValue="1"/>
            <parameter index="1" name="static gain" parameterValue="1"/>
          </component>
          <component componentGuid="df17759a-532b-4982-abf7-f690cc78f303" componentID="Audition.Mute" id="trackMute" name="Mute" powered="true">
            <parameter index="0" parameterValue="0"/>
            <parameter index="1" name="mute" parameterValue="0"/>
          </component>
          <component componentGuid="5d3b2210-3137-49d5-922d-9d9ff762e9d0" componentID="Audition.StereoPanner" id="trackPan" name="StereoPanner" powered="true">
            <parameter index="0" name="聲像" parameterValue="0"/>
          </component>
          <component componentGuid="9ca752bd-ccdd-48cb-95e4-41cbff9d6cb7" componentID="Audition.EQ" id="trackEQ" name="EQ" powered="false">
            <parameter index="0" name="下限頻率" parameterValue="0.0009079"/>
            <parameter index="1" name="下限增益" parameterValue="0.5"/>
            <parameter index="2" name="上限頻率" parameterValue="0.8161598"/>
            <parameter index="3" name="上限頻率增益" parameterValue="0.5"/>
            <parameter index="4" name="EQ 頻段 1 中置頻率" parameterValue="0.0013618"/>
            <parameter index="5" name="EQ 頻段 1 Q" parameterValue="0.0002"/>
            <parameter index="6" name="EQ 頻段 1 增益" parameterValue="0.5"/>
            <parameter index="7" name="EQ 頻段 1 啟用" parameterValue="1"/>
            <parameter index="8" name="EQ 頻段 2 中置頻率" parameterValue="0.0081707"/>
            <parameter index="9" name="EQ 頻段 2 Q" parameterValue="0.0002"/>
            <parameter index="10" name="EQ 頻段 2 增益" parameterValue="0.5"/>
            <parameter index="11" name="EQ 頻段 2 啟用" parameterValue="1"/>
            <parameter index="12" name="EQ 頻段 3 中置頻率" parameterValue="0.0354063"/>
            <parameter index="13" name="EQ 頻段 3 Q" parameterValue="0.0002"/>
            <parameter index="14" name="EQ 頻段 3 增益" parameterValue="0.5"/>
            <parameter index="15" name="EQ 頻段 3 啟用" parameterValue="1"/>
            <parameter index="16" name="EQ 頻段 4 中置頻率" parameterValue="0.1443486"/>
            <parameter index="17" name="EQ 頻段 4 Q" parameterValue="0.0002"/>
            <parameter index="18" name="EQ 頻段 4 增益" parameterValue="0.5"/>
            <parameter index="19" name="EQ 頻段 4 啟用" parameterValue="1"/>
            <parameter index="20" name="EQ 頻段 5 中置頻率" parameterValue="0.580118"/>
            <parameter index="21" name="EQ 頻段 5 Q" parameterValue="0.0002"/>
            <parameter index="22" name="EQ 頻段 5 增益" parameterValue="0.5"/>
            <parameter index="23" name="EQ 頻段 5 啟用" parameterValue="1"/>
            <parameter index="24" name="主控增益" parameterValue="0.6666667"/>
            <parameter index="25" name="恒定 Q" parameterValue="1"/>
            <parameter index="26" name="下限濾鏡順序" parameterValue="0"/>
            <parameter index="27" name="上限頻率濾鏡順序" parameterValue="0"/>
            <parameter index="28" name="超靜音模式" parameterValue="0"/>
            <parameter index="29" name="下限啟用" parameterValue="1"/>
            <parameter index="30" name="上限頻率啟用" parameterValue="1"/>
            <parameter index="31" name="原始取樣速率" parameterValue="0.2296875"/>
            <parameter index="32" name="EQ 頻段 1 頻帶寬" parameterValue="0.0025"/>
            <parameter index="33" name="EQ 頻段 2 頻段寬度" parameterValue="0.01"/>
            <parameter index="34" name="EQ 頻段 3 頻段寬度" parameterValue="0.04"/>
            <parameter index="35" name="EQ 頻段 4 頻段寬度" parameterValue="0.16"/>
            <parameter index="36" name="EQ 頻段 5 頻段寬度" parameterValue="0.64"/>
            <parameter index="37" name="高通濾波啟用" parameterValue="0"/>
            <parameter index="38" name="高通切除頻率" parameterValue="0"/>
            <parameter index="39" name="高通斜率" parameterValue="0.4"/>
            <parameter index="40" name="低通濾波啟用" parameterValue="0"/>
            <parameter index="41" name="低通切除頻率" parameterValue="0.906945"/>
            <parameter index="42" name="低通斜率" parameterValue="0.4"/>
            <parameter index="43" name="不使用" parameterValue="0"/>
            <parameter index="44" name="下限圖示範圍" parameterValue="1"/>
          </component>
        </trackAudioParameters>
        <editParameter parameterIndex="0" slotIndex="4294967280"/>
      </masterTrack>
    </tracks>
    <sessionState ctiPosition="386530" smpteStart="0">
      <selectionState selectionDuration="0" selectionStart="386530"/>
      <viewState horizontalViewDuration="202250" horizontalViewStart="0" trackControlsWidth="224" verticalScrollOffset="0"/>
      <timeFormatState beatsPerBar="4" beatsPerMinute="120" customFrameRate="12" linkToDefaultTimeSettings="true" noteLength="4" subdivisions="16" timeCodeDropFrame="false" timeCodeFrameRate="30" timeCodeNTSC="false" timeFormat="timeFormatDecimal"/>
      <mixingOptionState defaultPanModeLogarithmic="false" panPower="-3"/>
    </sessionState>
    <xmpMetadata><![CDATA[<?xpacket begin="﻿" id="W5M0MpCehiHzreSzNTczkc9d"?>
<x:xmpmeta xmlns:x="adobe:ns:meta/" x:xmptk="Adobe XMP Core 5.6-c140 79.160302, 2017/03/02-16:59:38        ">
   <rdf:RDF xmlns:rdf="http://www.w3.org/1999/02/22-rdf-syntax-ns#">
      <rdf:Description rdf:about=""
            xmlns:xmp="http://ns.adobe.com/xap/1.0/"
            xmlns:xmpMM="http://ns.adobe.com/xap/1.0/mm/"
            xmlns:stEvt="http://ns.adobe.com/xap/1.0/sType/ResourceEvent#"
            xmlns:stRef="http://ns.adobe.com/xap/1.0/sType/ResourceRef#"
            xmlns:dc="http://purl.org/dc/elements/1.1/"
            xmlns:xmpDM="http://ns.adobe.com/xmp/1.0/DynamicMedia/">
         <xmp:CreatorTool>Adobe Audition CC 2017.1 (Windows)</xmp:CreatorTool>
         <xmp:CreateDate>2018-02-26T19:56:36+08:00</xmp:CreateDate>
         <xmp:MetadataDate>2018-02-26T20:08:37+08:00</xmp:MetadataDate>
         <xmp:ModifyDate>2018-02-26T20:08:37+08:00</xmp:ModifyDate>
         <xmpMM:InstanceID>xmp.iid:9b2b75a0-9206-9d4c-a7f1-a6ea7989c49a</xmpMM:InstanceID>
         <xmpMM:DocumentID>xmp.did:9b2b75a0-9206-9d4c-a7f1-a6ea7989c49a</xmpMM:DocumentID>
         <xmpMM:OriginalDocumentID>xmp.did:fee78232-528a-a04b-9b88-0940beb20207</xmpMM:OriginalDocumentID>
         <xmpMM:History>
            <rdf:Seq>
               <rdf:li rdf:parseType="Resource">
                  <stEvt:action>saved</stEvt:action>
                  <stEvt:instanceID>xmp.iid:fee78232-528a-a04b-9b88-0940beb20207</stEvt:instanceID>
                  <stEvt:when>2018-02-26T19:56:37+08:00</stEvt:when>
                  <stEvt:softwareAgent>Adobe Audition CC 2017.1 (Windows)</stEvt:softwareAgent>
                  <stEvt:changed>/metadata</stEvt:changed>
               </rdf:li>
               <rdf:li rdf:parseType="Resource">
                  <stEvt:action>saved</stEvt:action>
                  <stEvt:instanceID>xmp.iid:95c5e102-63ec-0e43-b16e-0ac000927471</stEvt:instanceID>
                  <stEvt:when>2018-02-26T20:08:37+08:00</stEvt:when>
                  <stEvt:softwareAgent>Adobe Audition CC 2017.1 (Windows)</stEvt:softwareAgent>
                  <stEvt:changed>/metadata</stEvt:changed>
               </rdf:li>
               <rdf:li rdf:parseType="Resource">
                  <stEvt:action>saved</stEvt:action>
                  <stEvt:instanceID>xmp.iid:9b2b75a0-9206-9d4c-a7f1-a6ea7989c49a</stEvt:instanceID>
                  <stEvt:when>2018-02-26T20:08:37+08:00</stEvt:when>
                  <stEvt:softwareAgent>Adobe Audition CC 2017.1 (Windows)</stEvt:softwareAgent>
                  <stEvt:changed>/</stEvt:changed>
               </rdf:li>
            </rdf:Seq>
         </xmpMM:History>
         <xmpMM:DerivedFrom rdf:parseType="Resource">
            <stRef:instanceID>xmp.iid:95c5e102-63ec-0e43-b16e-0ac000927471</stRef:instanceID>
            <stRef:documentID>xmp.did:fee78232-528a-a04b-9b88-0940beb20207</stRef:documentID>
            <stRef:originalDocumentID>xmp.did:fee78232-528a-a04b-9b88-0940beb20207</stRef:originalDocumentID>
         </xmpMM:DerivedFrom>
         <dc:format>application/xml</dc:format>
         <xmpDM:Tracks>
            <rdf:Bag>
               <rdf:li rdf:parseType="Resource">
                  <xmpDM:trackName>CuePoint Markers</xmpDM:trackName>
                  <xmpDM:trackType>Cue</xmpDM:trackType>
                  <xmpDM:frameRate>f44100</xmpDM:frameRate>
               </rdf:li>
               <rdf:li rdf:parseType="Resource">
                  <xmpDM:trackName>CD Track Markers</xmpDM:trackName>
                  <xmpDM:trackType>Track</xmpDM:trackType>
                  <xmpDM:frameRate>f44100</xmpDM:frameRate>
               </rdf:li>
               <rdf:li rdf:parseType="Resource">
                  <xmpDM:trackName>Subclip Markers</xmpDM:trackName>
                  <xmpDM:trackType>InOut</xmpDM:trackType>
                  <xmpDM:frameRate>f44100</xmpDM:frameRate>
               </rdf:li>
            </rdf:Bag>
         </xmpDM:Tracks>
      </rdf:Description>
   </rdf:RDF>
</x:xmpmeta>
                                                                                                    
                                                                                                    
                                                                                                    
                                                                                                    
                                                                                                    
                                                                                                    
                                                                                                    
                                                                                                    
                                                                                                    
                                                                                                    
                                                                                                    
                                                                                                    
                                                                                                    
                                                                                                    
                                                                                                    
                                                                                                    
                                                                                                    
                                                                                                    
                                                                                                    
                                                                                                    
                           
<?xpacket end="w"?>]]></xmpMetadata>
    <clipGroups/>
    <metronome enabled="false" pattern="downBeat subdivision subdivision subdivision " soundSet="sticks">
      <metronomeTrack automationLaneOpenState="false" id="40000" index="0" select="false" visible="false">
        <trackParameters trackHeight="77" trackHue="-1" trackMinimized="false">
          <name>節拍器</name>
        </trackParameters>
        <trackAudioParameters audioChannelType="mono" automationMode="1" monitoring="false" recordArmed="false" solo="false" soloSafe="true">
          <trackOutput outputID="10000" type="trackID"/>
          <trackInput inputID="-1"/>
          <component componentGuid="71603673-ab2d-4836-8369-ed9357408987" componentID="Audition.Fader" id="trackFader" name="volume" powered="true">
            <parameter index="0" name="volume" parameterValue="0.5011872"/>
            <parameter index="1" name="static gain" parameterValue="1"/>
          </component>
          <component componentGuid="e20b79d0-6106-4ded-be5e-a0e35369b2e1" componentID="Audition.Mute" id="trackMute" name="Mute" powered="true">
            <parameter index="0" parameterValue="0"/>
            <parameter index="1" name="mute" parameterValue="0"/>
          </component>
          <component componentGuid="bff99097-a88b-4369-abcf-33c42801ee22" componentID="Audition.StereoPanner" id="trackPan" name="StereoPanner" powered="true">
            <parameter index="0" name="聲像" parameterValue="0"/>
          </component>
          <component componentGuid="c4345f52-53d0-45ce-b564-7e4afdd82a76" componentID="Audition.EQ" id="trackEQ" name="EQ" powered="false">
            <parameter index="0" name="下限頻率" parameterValue="0.0009079"/>
            <parameter index="1" name="下限增益" parameterValue="0.5"/>
            <parameter index="2" name="上限頻率" parameterValue="0.8161598"/>
            <parameter index="3" name="上限頻率增益" parameterValue="0.5"/>
            <parameter index="4" name="EQ 頻段 1 中置頻率" parameterValue="0.0013618"/>
            <parameter index="5" name="EQ 頻段 1 Q" parameterValue="0.0002"/>
            <parameter index="6" name="EQ 頻段 1 增益" parameterValue="0.5"/>
            <parameter index="7" name="EQ 頻段 1 啟用" parameterValue="1"/>
            <parameter index="8" name="EQ 頻段 2 中置頻率" parameterValue="0.0081707"/>
            <parameter index="9" name="EQ 頻段 2 Q" parameterValue="0.0002"/>
            <parameter index="10" name="EQ 頻段 2 增益" parameterValue="0.5"/>
            <parameter index="11" name="EQ 頻段 2 啟用" parameterValue="1"/>
            <parameter index="12" name="EQ 頻段 3 中置頻率" parameterValue="0.0354063"/>
            <parameter index="13" name="EQ 頻段 3 Q" parameterValue="0.0002"/>
            <parameter index="14" name="EQ 頻段 3 增益" parameterValue="0.5"/>
            <parameter index="15" name="EQ 頻段 3 啟用" parameterValue="1"/>
            <parameter index="16" name="EQ 頻段 4 中置頻率" parameterValue="0.1443486"/>
            <parameter index="17" name="EQ 頻段 4 Q" parameterValue="0.0002"/>
            <parameter index="18" name="EQ 頻段 4 增益" parameterValue="0.5"/>
            <parameter index="19" name="EQ 頻段 4 啟用" parameterValue="1"/>
            <parameter index="20" name="EQ 頻段 5 中置頻率" parameterValue="0.580118"/>
            <parameter index="21" name="EQ 頻段 5 Q" parameterValue="0.0002"/>
            <parameter index="22" name="EQ 頻段 5 增益" parameterValue="0.5"/>
            <parameter index="23" name="EQ 頻段 5 啟用" parameterValue="1"/>
            <parameter index="24" name="主控增益" parameterValue="0.6666667"/>
            <parameter index="25" name="恒定 Q" parameterValue="1"/>
            <parameter index="26" name="下限濾鏡順序" parameterValue="0"/>
            <parameter index="27" name="上限頻率濾鏡順序" parameterValue="0"/>
            <parameter index="28" name="超靜音模式" parameterValue="0"/>
            <parameter index="29" name="下限啟用" parameterValue="1"/>
            <parameter index="30" name="上限頻率啟用" parameterValue="1"/>
            <parameter index="31" name="原始取樣速率" parameterValue="0.2296875"/>
            <parameter index="32" name="EQ 頻段 1 頻帶寬" parameterValue="0.0025"/>
            <parameter index="33" name="EQ 頻段 2 頻段寬度" parameterValue="0.01"/>
            <parameter index="34" name="EQ 頻段 3 頻段寬度" parameterValue="0.04"/>
            <parameter index="35" name="EQ 頻段 4 頻段寬度" parameterValue="0.16"/>
            <parameter index="36" name="EQ 頻段 5 頻段寬度" parameterValue="0.64"/>
            <parameter index="37" name="高通濾波啟用" parameterValue="0"/>
            <parameter index="38" name="高通切除頻率" parameterValue="0"/>
            <parameter index="39" name="高通斜率" parameterValue="0.4"/>
            <parameter index="40" name="低通濾波啟用" parameterValue="0"/>
            <parameter index="41" name="低通切除頻率" parameterValue="0.906945"/>
            <parameter index="42" name="低通斜率" parameterValue="0.4"/>
            <parameter index="43" name="不使用" parameterValue="0"/>
            <parameter index="44" name="下限圖示範圍" parameterValue="1"/>
          </component>
        </trackAudioParameters>
        <editParameter parameterIndex="0" slotIndex="4294967280"/>
        <sendList>
          <sendSlot preFader="false" sendOutputID="0" slotIndex="0">
            <component componentGuid="e822da15-2d57-42b1-94ae-625eba9747e1" id="sendComponent" powered="false">
              <parameter index="0" name="電源開/關" parameterValue="0"/>
              <parameter index="1" name="電平" parameterValue="0"/>
            </component>
            <component id="sendPan" powered="true"/>
          </sendSlot>
          <sendSlot preFader="false" sendOutputID="0" slotIndex="1">
            <component componentGuid="55ffb81a-0400-489d-9bc0-441c77cddeba" id="sendComponent" powered="false">
              <parameter index="0" name="電源開/關" parameterValue="0"/>
              <parameter index="1" name="電平" parameterValue="0"/>
            </component>
            <component id="sendPan" powered="true"/>
          </sendSlot>
          <sendSlot preFader="false" sendOutputID="0" slotIndex="2">
            <component componentGuid="f710266e-78ae-44e4-bcf7-0cbecbf4ea20" id="sendComponent" powered="false">
              <parameter index="0" name="電源開/關" parameterValue="0"/>
              <parameter index="1" name="電平" parameterValue="0"/>
            </component>
            <component id="sendPan" powered="true"/>
          </sendSlot>
          <sendSlot preFader="false" sendOutputID="0" slotIndex="3">
            <component componentGuid="89692847-4c1a-4cfa-afd6-38568a29e2a6" id="sendComponent" powered="false">
              <parameter index="0" name="電源開/關" parameterValue="0"/>
              <parameter index="1" name="電平" parameterValue="0"/>
            </component>
            <component id="sendPan" powered="true"/>
          </sendSlot>
          <sendSlot preFader="false" sendOutputID="0" slotIndex="4">
            <component componentGuid="7d18638d-caa9-4d5a-b883-04449bcd2ffd" id="sendComponent" powered="false">
              <parameter index="0" name="電源開/關" parameterValue="0"/>
              <parameter index="1" name="電平" parameterValue="0"/>
            </component>
            <component id="sendPan" powered="true"/>
          </sendSlot>
          <sendSlot preFader="false" sendOutputID="0" slotIndex="5">
            <component componentGuid="7bd10b43-ea40-498b-b545-f26faa148cce" id="sendComponent" powered="false">
              <parameter index="0" name="電源開/關" parameterValue="0"/>
              <parameter index="1" name="電平" parameterValue="0"/>
            </component>
            <component id="sendPan" powered="true"/>
          </sendSlot>
          <sendSlot preFader="false" sendOutputID="0" slotIndex="6">
            <component componentGuid="827c3dcf-5439-4fd7-af9e-43300d2e419a" id="sendComponent" powered="false">
              <parameter index="0" name="電源開/關" parameterValue="0"/>
              <parameter index="1" name="電平" parameterValue="0"/>
            </component>
            <component id="sendPan" powered="true"/>
          </sendSlot>
          <sendSlot preFader="false" sendOutputID="0" slotIndex="7">
            <component componentGuid="3190c757-7b5c-4062-9734-9ea37f379129" id="sendComponent" powered="false">
              <parameter index="0" name="電源開/關" parameterValue="0"/>
              <parameter index="1" name="電平" parameterValue="0"/>
            </component>
            <component id="sendPan" powered="true"/>
          </sendSlot>
          <sendSlot preFader="false" sendOutputID="0" slotIndex="8">
            <component componentGuid="0a06cf61-d515-4e82-90c6-fae72b942ee0" id="sendComponent" powered="false">
              <parameter index="0" name="電源開/關" parameterValue="0"/>
              <parameter index="1" name="電平" parameterValue="0"/>
            </component>
            <component id="sendPan" powered="true"/>
          </sendSlot>
          <sendSlot preFader="false" sendOutputID="0" slotIndex="9">
            <component componentGuid="07de3e9a-6720-4a68-b553-08b328450e60" id="sendComponent" powered="false">
              <parameter index="0" name="電源開/關" parameterValue="0"/>
              <parameter index="1" name="電平" parameterValue="0"/>
            </component>
            <component id="sendPan" powered="true"/>
          </sendSlot>
          <sendSlot preFader="false" sendOutputID="0" slotIndex="10">
            <component componentGuid="35ca587b-7d3c-4ff7-86a9-35e0915eb489" id="sendComponent" powered="false">
              <parameter index="0" name="電源開/關" parameterValue="0"/>
              <parameter index="1" name="電平" parameterValue="0"/>
            </component>
            <component id="sendPan" powered="true"/>
          </sendSlot>
          <sendSlot preFader="false" sendOutputID="0" slotIndex="11">
            <component componentGuid="f0e0d90d-8c44-4663-b0b5-8f7b659e4965" id="sendComponent" powered="false">
              <parameter index="0" name="電源開/關" parameterValue="0"/>
              <parameter index="1" name="電平" parameterValue="0"/>
            </component>
            <component id="sendPan" powered="true"/>
          </sendSlot>
          <sendSlot preFader="false" sendOutputID="0" slotIndex="12">
            <component componentGuid="b5bce7bb-112b-4efb-9208-e38228cd16a7" id="sendComponent" powered="false">
              <parameter index="0" name="電源開/關" parameterValue="0"/>
              <parameter index="1" name="電平" parameterValue="0"/>
            </component>
            <component id="sendPan" powered="true"/>
          </sendSlot>
          <sendSlot preFader="false" sendOutputID="0" slotIndex="13">
            <component componentGuid="349b6343-e091-4162-b05b-b9ab6c86120e" id="sendComponent" powered="false">
              <parameter index="0" name="電源開/關" parameterValue="0"/>
              <parameter index="1" name="電平" parameterValue="0"/>
            </component>
            <component id="sendPan" powered="true"/>
          </sendSlot>
          <sendSlot preFader="false" sendOutputID="0" slotIndex="14">
            <component componentGuid="1f51f05f-a4eb-45eb-a142-50288912d49a" id="sendComponent" powered="false">
              <parameter index="0" name="電源開/關" parameterValue="0"/>
              <parameter index="1" name="電平" parameterValue="0"/>
            </component>
            <component id="sendPan" powered="true"/>
          </sendSlot>
          <sendSlot preFader="false" sendOutputID="0" slotIndex="15">
            <component componentGuid="be033b7d-9303-455b-b4c4-905ceaf558d5" id="sendComponent" powered="false">
              <parameter index="0" name="電源開/關" parameterValue="0"/>
              <parameter index="1" name="電平" parameterValue="0"/>
            </component>
            <component id="sendPan" powered="true"/>
          </sendSlot>
        </sendList>
      </metronomeTrack>
    </metronome>
    <properties>
      <property key="EssentialSoundConfigurations">[{"Guid":"a8b40e3e-13e7-4c1f-b382-96058f1f691d","Name":"$$$/app/Presets/DefaultPresetName=(Default)","PresetData":{"ModeID":"ambience","Models":{"model_loudness":{"DefaultLoudness":{"type":"float","value":-30},"LoudnessStandard":{"type":"std::uint32_t","value":0},"MaxLoudness":{"type":"float","value":-12},"MinLoudness":{"type":"float","value":-35}},"model_soundeffects":{"ReverbPresets":{"type":"tree::any","value":{"$$$/app/Presets/EssentialSound/ReverbPreset/LargeRoomAmbience=Large Room Ambience":{"type":"array::float","value":[0.051507499068975449,0.32432401180267334,0.29292899370193481,0.30000001192092896,0.20000000298023224,0,0.14285700023174286,0.40000000596046448,0.5,0.69999998807907104,0.30000001192092896,0.25125628709793091,0.03125]},"$$$/app/Presets/EssentialSound/ReverbPreset/OutsideAmbience=Outside Ambience":{"type":"array::float","value":[0.091708503663539886,0.043893899768590927,1,0.5,0.20000000298023224,0.80000001192092896,0.18367299437522888,1,0.5,0,0.80000001192092896,0.25125628709793091,0.03125]},"$$$/app/Presets/EssentialSound/ReverbPreset/RoomAmbience=Room Ambience":{"type":"array::float","value":[0.057788901031017303,0.44944900274276733,0.49494898319244385,0.89999997615814209,0.10000000149011612,0.15000000596046448,0.081632703542709351,0.40000000596046448,0.5,0.80000001192092896,0.20000000298023224,0.25125628709793091,0.03125]},"$$$/app/Presets/EssentialSound/ReverbPreset/WindEffect=Wind Effect":{"type":"array::float","value":[0.19597999751567841,0.6896899938583374,0.69696998596191406,0.25,0.5,0.5,0.23469400405883789,0.51999998092651367,0.5,0.75,0.25,0.25125628709793091,0.03125]}}}},"model_stereowidth":{},"model_volume":{"MaxGain":{"type":"float","value":6},"MinGain":{"type":"float","value":-15}}}},"Type":"1c19ca71-c24c-49cd-8dd5-2cc46018507a","Version":1},{"Guid":"58dc27a8-6a2a-480c-bd0c-4b45fff346a6","Name":"$$$/app/Presets/DefaultPresetName=(Default)","PresetData":{"ModeID":"dialog","Models":{"model_clarity":{"EQPresets":{"type":"tree::any","value":{"$$$/app/Presets/EssentialSound/EQPreset/BackgroundVoice=Background Voice":{"type":"array::float","value":[0.12099699676036835,0.5,0.39240506291389465,0,0.5,0.5,0.5,0.5,0.5,0.47827938199043274,0.45772689580917358,0.45778733491897583,0.47946760058403015,0.5,0]},"$$$/app/Presets/EssentialSound/EQPreset/Intercom=Intercom":{"type":"array::float","value":[0.19432899355888367,0.5,1,0,0.071499988436698914,0.071499988436698914,0.071499988436698914,0.40238627791404724,0.48571401834487915,0.5,0.55155748128890991,0.59602576494216919,0.22246670722961426,0.071499988436698914,0]},"$$$/app/Presets/EssentialSound/EQPreset/LockedInTheTrunk=Locked in the Trunk":{"type":"array::float","value":[0.12099699676036835,0.5,0.79746836423873901,0,0.5,0.5,0.5,0.5,0.5,0.32846158742904663,0.15721426904201508,0.15721426904201508,0.15721426904201508,0.15721426904201508,0]},"$$$/app/Presets/EssentialSound/EQPreset/OldRadio=Old Radio":{"type":"array::float","value":[0.12099699676036835,0.5,0.79746836423873901,0,0.15721426904201508,0.15721426904201508,0.15721426904201508,0.28442040085792542,0.48315632343292236,0.36498492956161499,0.52853888273239136,0.43511500954627991,0.27154684066772461,0.15721426904201508,0]},"$$$/app/Presets/EssentialSound/EQPreset/OnTheTelephone=On the Telephone":{"type":"array::float","value":[0.12099699676036835,0.5,0.39240506291389465,0,0.32864287495613098,0.32864287495613098,0.32864287495613098,0.32864287495613098,0.48571401834487915,0.53071397542953491,0.53071397542953491,0.48357096314430237,0.32864287495613098,0.32864287495613098,0]},"$$$/app/Presets/EssentialSound/EQPreset/OutsideOfTheRoom=Outside of the Room":{"type":"array::float","value":[0.12099699676036835,0.5,0.79746836423873901,0,0.42539370059967041,0.47865453362464905,0.5,0.5,0.48571401834487915,0.40073278546333313,0.25656309723854065,0.15721426904201508,0.15721426904201508,0.15721426904201508,0]},"$$$/app/Presets/EssentialSound/EQPreset/PodcastVoice=Podcast Voice":{"type":"array::float","value":[0.12099699676036835,0.5,0.39240506291389465,0,0.5,0.5,0.5,0.51789408922195435,0.50770342350006104,0.5,0.51789408922195435,0.528114914894104,0.5102812647819519,0.5,0]},"$$$/app/Presets/EssentialSound/EQPreset/SubtleBoostFemale=Subtle Boost (Female)":{"type":"array::float","value":[0.096553400158882141,0.5,0.29113924503326416,0,0.5,0.5,0.5,0.5,0.5,0.51933407783508301,0.54642897844314575,0.52706766128540039,0.5,0.5,0]},"$$$/app/Presets/EssentialSound/EQPreset/SubtleBoostMale=Subtle Boost (Male)":{"type":"array::float","value":[0.096553400158882141,0.5,0.29113924503326416,0,0.5,0.5,0.5,0.5,0.5,0.5135338306427002,0.54642897844314575,0.51933407783508301,0.5,0.5,0]},"$$$/app/Presets/EssentialSound/EQPreset/ThatPublicRadioSound=That Public Radio Sound":{"type":"array::float","value":[0.12099699676036835,0.5,0.79746836423873901,0,0.15721426904201508,0.15721426904201508,0.15721426904201508,0.36334344744682312,0.49468311667442322,0.5,0.5,0.5,0.5,0.5,0]},"$$$/app/Presets/EssentialSound/EQPreset/VocalPresence=Vocal Presence":{"type":"array::float","value":[0.096553400158882141,0.5,0.32489451766014099,0,0.3572143018245697,0.3572143018245697,0.46428570151329041,0.47857141494750977,0.4763694703578949,0.49570354819297791,0.55924957990646362,0.56523394584655762,0.50859290361404419,0.46992480754852295,0]}}}},"model_loudness":{"DefaultLoudness":{"type":"float","value":-23},"LoudnessStandard":{"type":"std::uint32_t","value":0},"MaxLoudness":{"type":"float","value":-12},"MinLoudness":{"type":"float","value":-35}},"model_restoration":{"ReduceNoiseMaxSetting":{"type":"array::float","value":[0.60000002384185791,0.40000000596046448,0.5,0.5,0.2465750128030777,0.60000002384185791,2048,0,0]},"ReduceNoiseMinSetting":{"type":"array::float","value":[0.375,0.20000000298023224,0.60000002384185791,0.5625,0.10958899557590485,0.30000001192092896,512,0,0]},"ReduceRumbleMaxSetting":{"type":"array::float","value":[1,0.084112152457237244,0.375,0,0,0.00083333335351198912,1,0,1,0.0390625,0.00083408987848088145,0,0.0041666668839752674,0.00022554649331141263,0.0046875001862645149,0.75,0.0052083334885537624,0.75,1,0.75,0.0040520834736526012,0.75,0.0042629167437553406,0.00022554649331141263,0.0064883334562182426,0.00022554649331141263,0.006866666954010725,0.75,0.0071704164147377014,0.00022554649331141263,0.01041458360850811,0.00022554649331141263,0.010900000110268593,0.75,0.011407917365431786,0.00022554649331141263,0.015606249682605267,0.00022554649331141263,0.016333334147930145,0.75,0.017094582319259644,0.00022554649331141263,0.026243748143315315,0.00022554649331141263,0.0274666678160429,0.75,0.028746666386723518,0.00022554649331141263,0.041658751666545868,0.00022554649331141263,0.043600000441074371,0.75,0.045631669461727142,0.00022554649331141263,0.062424581497907639,0.00022554649331141263,0.065333336591720581,0.75,0.068377502262592316,0.00022554649331141263,0.10497540980577469,0.00022554649331141263,0.1098666712641716,0.75,0.11498583108186722,0.00022554649331141263,0.16663584113121033,0.00022554649331141263,0.17440000176429749,0.75,0.18252624571323395,0.00022554649331141263,0.91874998807907104,0.00022554649331141263,1,0.00022554649331141263,0,0,0,0,0,0,0,0,0,0,0,0,0,0,0,0,0,0,0,0,0,0,0,0,0,0,0,0,0,0,0,0,0,0,0,0,0,0,0,0,0,0,0,0,0,0,0,0,0,0,0,0,0,0,0,0,0,0,0,0,0,0,0,0,0,0,0,0,0,0,0,0,0,0,0,0,0,0,0,0,0,0,0,0,0,0,0,0,0,0,0,0,0,0,0,0,0,0,0,0,0,0,0,0,0,0,0,0,0,0,0,0,0,0,0,0,0,0,0,0,0,0,0,0,0,0,0,0,0,0,0,0,0,0,0,0,0,0,0,0,0,0,0,0,0,0,0,0,0,0,0,0,0,0,0,0,0,0,0,0,0,0,0,0,0,0,0,0,0,0,0,0,0,0,0,0,0,0,0,0,0,0,0,0,0,0,0,0,0,0]},"ReduceRumbleMinSetting":{"type":"array::float","value":[1,0.084112152457237244,0.375,0,0,0.00083333335351198912,1,0,1,0.0390625,0.00083408987848088145,0.75,0.0041666668839752674,0.75,0.0046875001862645149,0.75,0.0052083334885537624,0.75,1,0.75,0.91874998807907104,0.61237245798110962,1,0.61237245798110962,0,0,0,0,0,0,0,0,0,0,0,0,0,0,0,0,0,0,0,0,0,0,0,0,0,0,0,0,0,0,0,0,0,0,0,0,0,0,0,0,0,0,0,0,0,0,0,0,0,0,0,0,0,0,0,0,0,0,0,0,0,0,0,0,0,0,0,0,0,0,0,0,0,0,0,0,0,0,0,0,0,0,0,0,0,0,0,0,0,0,0,0,0,0,0,0,0,0,0,0,0,0,0,0,0,0,0,0,0,0,0,0,0,0,0,0,0,0,0,0,0,0,0,0,0,0,0,0,0,0,0,0,0,0,0,0,0,0,0,0,0,0,0,0,0,0,0,0,0,0,0,0,0,0,0,0,0,0,0,0,0,0,0,0,0,0,0,0,0,0,0,0,0,0,0,0,0,0,0,0,0,0,0,0,0,0,0,0,0,0,0,0,0,0,0,0,0,0,0,0,0,0,0,0,0,0,0,0,0,0,0,0,0,0,0,0,0,0,0,0,0,0,0,0,0,0,0,0,0,0,0,0,0,0,0,0,0,0,0,0,0,0]},"ReduceSibilanceMaxSetting":{"type":"array::float","value":[0.5,0.19983997941017151,0.18367347121238708,0.26086956262588501,0.52702701091766357,0,1,0,0,0,0,0.75,1,1,0.40000000596046448]},"ReduceSibilanceMinSetting":{"type":"array::float","value":[0.875,0.19983997941017151,0.18367347121238708,0.19130434095859528,0.25675675272941589,0,1,0,0,0,0,0.75,1,1,0.40000000596046448]}},"model_soundeffects":{"ReverbPresets":{"type":"tree::any","value":{"$$$/app/Presets/EssentialSound/ReverbPreset/Auditorium=Auditorium":{"type":"array::float","value":[0.013047545216977596,0.15895412862300873,1,0.89999997615814209,0,0.52007436752319336,0.41663265228271484,0.46000000834465027,0.5,0.73000001907348633,0.15999999642372131,0.75376886129379272,0.03125]},"$$$/app/Presets/EssentialSound/ReverbPreset/Church=Church":{"type":"array::float","value":[0.032663315534591675,0.39939939975738525,0.79797977209091187,0.25,0.5,0.5,0.2297959178686142,0.72000002861022949,0.5,0.62999999523162842,0.87999999523162842,0.25125628709793091,0.03125]},"$$$/app/Presets/EssentialSound/ReverbPreset/LargeReflectiveRoom=Large Reflective Room":{"type":"array::float","value":[0.0074449013918638229,0.098988421261310577,0.79890537261962891,0.89999997615814209,0.10000000149011612,0.40110713243484497,0.060284845530986786,0.27522978186607361,0.5,0.73000001907348633,0.31999999284744263,0.25125628709793091,0.03125]},"$$$/app/Presets/EssentialSound/ReverbPreset/OutsideTheClub=Outside the Club":{"type":"array::float","value":[0.020615793764591217,0.050136558711528778,0.69696998596191406,0.25,0.094355784356594086,0.22242647409439087,0.1071428582072258,0.2800000011920929,0.5,0.73000001907348633,0.46000000834465027,0.25125628709793091,0.03125]},"$$$/app/Presets/EssentialSound/ReverbPreset/SmallDryRoom=Small Dry Room":{"type":"array::float","value":[0.24623115360736847,0.69975000619888306,0.29292899370193481,0.40000000596046448,0.20000000298023224,0.40000000596046448,0.039285715669393539,0.10000000149011612,0.5,1,0.5,0.75376886129379272,0.03125]},"$$$/app/Presets/EssentialSound/ReverbPreset/ThickenVoice=Thicken Voice":{"type":"array::float","value":[0.19597999751567841,0.23931467533111572,0.69696998596191406,0.25,0.5,0.53999996185302734,0.020408162847161293,0.20945435762405396,0.5,1,0.34999999403953552,0.25125628709793091,0.03125]},"$$$/app/Presets/EssentialSound/ReverbPreset/WarmRoom=Warm Room":{"type":"array::float","value":[0.020100502297282219,0.074074074625968933,0.49494948983192444,0.40000000596046448,0.74960309267044067,0.40000000596046448,0.1239795908331871,0.67000001668930054,0.5,0.85000002384185791,0.56000000238418579,0.25125628709793091,0.03125]},"$$$/app/Presets/EssentialSound/ReverbPreset/WarmVoice=Warm Voice":{"type":"array::float","value":[0.19597989320755005,0.89989989995956421,0,0.40000000596046448,0.20000000298023224,0.40000000596046448,0.10204081982374191,0.090000003576278687,0.5,1,0.30000001192092896,0.25125628709793091,0.03125]}}}},"model_volume":{"MaxGain":{"type":"float","value":6},"MinGain":{"type":"float","value":-15}}}},"Type":"1c19ca71-c24c-49cd-8dd5-2cc46018507a","Version":1},{"Guid":"31ba96a6-5d3e-4d89-b1e1-1dbe3c055d0c","Name":"$$$/app/Presets/DefaultPresetName=(Default)","PresetData":{"ModeID":"music","Models":{"model_duration":{},"model_loudness":{"DefaultLoudness":{"type":"float","value":-25},"LoudnessStandard":{"type":"std::uint32_t","value":0},"MaxLoudness":{"type":"float","value":-12},"MinLoudness":{"type":"float","value":-35}},"model_volume":{"MaxGain":{"type":"float","value":6},"MinGain":{"type":"float","value":-15}}}},"Type":"1c19ca71-c24c-49cd-8dd5-2cc46018507a","Version":1},{"Guid":"cea63332-1adc-44a9-a6eb-5490f965859b","Name":"$$$/app/Presets/DefaultPresetName=(Default)","PresetData":{"ModeID":"sfx","Models":{"model_loudness":{"DefaultLoudness":{"type":"float","value":-21},"LoudnessStandard":{"type":"std::uint32_t","value":0},"MaxLoudness":{"type":"float","value":-12},"MinLoudness":{"type":"float","value":-35}},"model_pan":{},"model_soundeffects":{"ReverbPresets":{"type":"tree::any","value":{"$$$/app/Presets/EssentialSound/ReverbPreset/HeavyReverb=Heavy Reverb":{"type":"array::float","value":[0.13316600024700165,0.29929900169372559,1,0.95999997854232788,0.85000002384185791,0.5,0.51530599594116211,0.30000001192092896,0.5,0.5,0.5,0.25125628709793091,0.0625]},"$$$/app/Presets/EssentialSound/ReverbPreset/LightReverb=Light Reverb":{"type":"array::float","value":[0.095477402210235596,0.29929900169372559,0.090909101068973541,1,1,0.80000001192092896,0.22449000179767609,0.60000002384185791,0.5,0.69999998807907104,0.30000001192092896,0.25125628709793091,0.0625]},"$$$/app/Presets/EssentialSound/ReverbPreset/OutsideReverb=Outside Reverb":{"type":"array::float","value":[0.091708503663539886,0.043893899768590927,1,0.5,0.20000000298023224,0.80000001192092896,0.18367299437522888,1,0.5,0,0.80000001192092896,0.25125628709793091,0.0625]},"$$$/app/Presets/EssentialSound/ReverbPreset/RoomReverb=Room Reverb":{"type":"array::float","value":[0.057788901031017303,0.44944900274276733,0.49494898319244385,0.89999997615814209,0.10000000149011612,0.15000000596046448,0.081632703542709351,0.40000000596046448,0.5,0.80000001192092896,0.20000000298023224,0.25125628709793091,0.0625]}}}},"model_volume":{"MaxGain":{"type":"float","value":6},"MinGain":{"type":"float","value":-15}}}},"Type":"1c19ca71-c24c-49cd-8dd5-2cc46018507a","Version":1}]</property>
    </properties>
  </session>

  <files>
    <file absolutePath="D:\projects\godot_project\pong\Defend-A-of-Hearts\sound\woosh_edit.wav" id="0" importerPrivateSettings="BitsPerSecond:0:116284;CompressionQuality:0:4;CompressionType:0:1;" mediaHandler="AmioWav" recoveryID="baaa50eb-3eb2-44de-93d7-403ef806d899" relativePath="../../woosh_edit.wav"/>
  </files>

  <audioDevice inputID="666FA489-37C6-453C-BFB2-E82D7AA8E91A" outputID="4E70ED5B-1B0A-4784-8746-92B5495B497D">
    <inputPort id="1" name="默認身歷聲輸入"/>
    <inputPort id="2" name="[01M] 耳麥式麥克風 (Corsair VOID RGB USB Gaming Headset ) 1"/>
    <inputPort id="3" name="[02M] 耳麥式麥克風 (Corsair VOID RGB USB Gaming Headset ) 2"/>
    <inputPort id="4" name="[01S] 耳麥式麥克風 (Corsair VOID RGB USB Gaming Headset ) 1"/>
    <outputPort id="1" name="默認輸出"/>
    <outputPort id="2" name="[01M] 喇叭 (Realtek High Definition Audio) 1"/>
    <outputPort id="3" name="[02M] 喇叭 (Realtek High Definition Audio) 2"/>
    <outputPort id="4" name="默認身歷聲輸出"/>
    <outputPort id="5" name="[01S] 喇叭 (Realtek High Definition Audio) 1"/>
    <outputPort id="6" name="默認環繞聲輸出"/>
  </audioDevice>

</sesx>
